<svg width="auto" height="100%" viewBox="0 0 264 39" fill="currentColor" xmlns="http://www.w3.org/2000/svg">
<path d="M34.8465 36.4934C34.7985 36.4934 34.7985 36.4454 34.7505 36.4454C34.5585 36.3974 34.3665 36.3974 34.2225 36.3974H33.7905C33.2145 36.3494 32.6385 36.2534 32.1105 35.8694C31.9185 35.7254 31.8225 35.5334 31.7745 35.3894C31.6785 35.0534 31.6305 34.7174 31.6785 34.3334L31.9185 33.2294C31.9665 33.0854 31.9665 32.8454 32.0145 32.6534C32.1105 32.0774 32.2545 31.5974 32.3505 31.1174C32.3985 30.7814 32.4945 30.4934 32.5425 30.2534C32.5905 29.8694 32.6865 29.5814 32.7825 29.2454C32.8785 28.9094 32.9265 28.5734 33.0225 28.2854C33.0705 27.8534 33.1665 27.4214 33.2145 26.9894C33.3105 26.5094 33.4065 26.0294 33.4545 25.5494C33.4545 25.3094 33.5025 25.0214 33.5985 24.7334C33.6465 24.3974 33.7425 24.1094 33.8385 23.8214C33.8865 23.5334 33.9345 23.1494 34.0305 22.9094C34.1265 22.2854 34.2705 21.6614 34.3665 20.9894C34.4625 20.5574 34.5585 20.1734 34.6065 19.7414L34.8945 18.4454C34.9905 17.6294 35.1825 16.7654 35.3745 15.9974C35.4225 15.6614 35.5185 15.4214 35.5185 15.1814L35.6625 14.1254C35.7585 13.5974 35.8545 13.0214 35.9985 12.4934C35.9985 12.3974 36.0465 12.3014 36.0465 12.2534C36.0465 12.1574 36.0945 12.1574 36.0465 12.1094C36.1905 11.5814 36.2865 11.0534 36.4305 10.5254C36.4785 10.2374 36.5265 9.94943 36.6225 9.61342C36.6225 9.37342 36.7185 9.08543 36.7665 8.94142C36.8145 8.70142 36.8625 8.36543 36.9585 8.12542C37.0545 7.83742 37.1025 7.64542 37.1505 7.35742C37.2945 6.73342 37.4865 6.15743 37.5825 5.53343L37.8705 4.28542C37.9185 4.04542 37.9665 3.75743 38.0625 3.46942C38.0625 3.32543 38.1105 3.13342 38.1585 3.03742C38.1585 2.98942 38.2065 2.94142 38.2065 2.89342L38.4945 2.46142C38.4945 2.41343 38.5425 2.41343 38.5425 2.36542C38.6385 2.26942 38.8305 2.17343 38.9265 2.12542C39.1665 2.02942 39.4065 1.93343 39.6945 1.88542C39.8385 1.83742 40.0305 1.83742 40.2225 1.78942C40.2705 1.78942 40.3185 1.78942 40.3185 1.74143H40.5585C40.7505 1.74143 40.9905 1.74143 41.2305 1.69342H41.7585C42.1905 1.59742 42.5745 1.59742 42.9585 1.59742C43.3425 1.50143 43.6785 1.50143 44.0145 1.50143C44.2545 1.50143 44.4465 1.45342 44.6385 1.45342C45.0225 1.45342 45.4065 1.45342 45.7425 1.40542C45.7905 1.35742 45.8865 1.35742 45.9825 1.35742C46.2225 1.35742 46.5105 1.45342 46.7025 1.59742L46.7985 1.64542L46.9425 1.78942C47.0385 2.02942 47.0865 2.26942 47.0865 2.55742C47.1345 2.60543 47.1345 2.70142 47.1345 2.70142C47.1345 2.84543 47.0865 2.94142 47.0385 3.08543C46.9905 3.13342 46.9905 3.13342 46.9905 3.18142C46.7985 3.42142 46.5585 3.56542 46.2705 3.80542C46.2225 3.80542 46.1745 3.80542 46.1265 3.85342H44.6865C44.5425 3.85342 44.3505 3.80542 44.1105 3.80542C43.7745 3.80542 43.4385 3.85342 43.1025 3.90142C42.9105 3.94943 42.7665 3.94943 42.5745 3.94943C42.3825 3.99743 42.1905 4.04542 41.9505 4.04542C41.9025 4.04542 41.8545 4.09342 41.8065 4.09342C41.6145 4.09342 41.4225 4.14142 41.2305 4.14142C41.1825 4.14142 41.1345 4.18943 41.0865 4.23742C41.0385 4.23742 40.9425 4.23742 40.9425 4.28542C40.8945 4.28542 40.7985 4.28542 40.7025 4.33342C40.5585 4.47742 40.3665 4.57342 40.2705 4.71742C40.0305 5.24542 39.8385 5.86942 39.7425 6.63743C39.6945 6.68542 39.6945 6.68542 39.6945 6.73342C39.5985 6.92542 39.5025 7.30943 39.4545 7.69343L39.2625 8.55742C39.2625 8.70142 39.2145 8.79743 39.1665 8.89342C39.0705 9.18142 38.9745 9.37342 38.9745 9.70943C38.9745 9.80542 38.9745 9.90142 38.9265 9.94943C38.8305 10.4294 38.7825 10.8614 38.6385 11.3414C38.6385 11.4854 38.5905 11.6294 38.5905 11.7254C38.5905 12.1094 38.4945 12.4454 38.3985 12.8294C38.3985 12.9734 38.3985 13.1654 38.3505 13.4054C38.1585 13.8854 38.0625 14.4134 38.0145 14.9894L37.9185 15.5654C37.8225 15.9014 37.7745 16.3814 37.6305 16.7174L37.3425 18.2054C37.3425 18.4454 37.2945 18.6374 37.2945 18.8294C37.2465 18.8774 37.2465 18.9254 37.2465 18.9254C37.1985 19.0214 37.1985 19.1174 37.1985 19.2134C37.2465 19.4054 37.2945 19.5014 37.4385 19.5974H37.4865C37.4865 19.6454 37.4865 19.5974 37.5825 19.6454H38.3025C38.3505 19.6454 38.3985 19.6454 38.3985 19.5974H38.7825C38.8305 19.5974 38.8305 19.5974 38.8785 19.5494L39.3105 19.5974C39.5505 19.5494 39.7905 19.5494 39.9825 19.5494H41.0865C41.2305 19.5494 41.4225 19.6454 41.5185 19.6934C41.9025 19.9334 41.9985 20.3174 42.0945 20.6054V20.7494C42.0465 21.0374 41.9505 21.2774 41.8545 21.4694C41.8065 21.5174 41.8065 21.5174 41.8065 21.5654L41.5185 21.7574L41.2305 21.9014C41.0385 21.9974 40.9905 21.9974 40.9425 21.9974C40.6545 22.0454 40.4625 22.0454 40.2225 22.0454H39.9825C39.7905 22.0454 39.5985 22.0454 39.3585 22.0934C39.3105 22.0934 39.2625 22.0934 39.2145 22.1414H39.0705C39.0225 22.1414 38.9265 22.1414 38.9265 22.1894H37.4865L37.1505 22.2374L37.0065 22.3814L36.8625 22.4774L36.4305 23.5814C36.4305 23.6294 36.3825 23.7254 36.3825 23.6774C36.3825 24.1094 36.2385 24.3974 36.1905 24.8294C36.0945 25.1654 36.0465 25.5494 35.9985 25.8854C35.9985 25.9814 35.9505 26.0774 35.9505 26.0774C35.9025 26.3174 35.8065 26.5574 35.8065 26.7014C35.8065 26.8934 35.7105 27.1334 35.7105 27.2774C35.7105 27.3734 35.7105 27.5174 35.6625 27.6134C35.5185 28.0934 35.4225 28.5734 35.3265 29.1014C35.2305 29.4854 35.1825 29.9174 35.0865 30.3974C35.0385 30.4934 35.0385 30.6374 34.9905 30.7814L34.8945 31.5494C34.8465 31.5974 34.8465 31.6454 34.8465 31.6454C34.7505 31.8374 34.7505 32.1254 34.7025 32.4134C34.7505 32.7014 34.7025 33.0854 34.8465 33.4214C34.9425 33.4694 35.0385 33.5654 35.1345 33.7094L35.5185 33.9974L36.6225 34.0934C36.8625 33.9974 37.1505 33.9974 37.3905 33.9974L38.8305 34.0454C39.5025 33.9974 40.1265 33.9014 40.7985 33.9494H41.1825C41.2305 33.9494 41.2785 33.9974 41.3265 33.9974L41.6145 34.2374C41.7105 34.2374 41.7105 34.3334 41.7105 34.4294C41.7585 34.5254 41.8065 34.6694 41.8065 34.8614C41.8545 34.9574 41.9025 35.1014 41.9025 35.2454V35.3894C41.8065 35.5334 41.8065 35.6774 41.8545 35.6294C41.7105 35.8214 41.5665 35.9654 41.4225 36.1094C41.4225 36.1574 41.3265 36.1574 41.3265 36.2054C41.2305 36.2054 41.1345 36.2534 41.0385 36.3014L40.8945 36.3974C40.7505 36.3974 40.7025 36.4454 40.6065 36.4454C40.2225 36.4454 39.8385 36.3974 39.5025 36.3974C38.7825 36.3974 38.0625 36.3974 37.3425 36.4454C37.0065 36.4454 36.6705 36.4454 36.3345 36.4934H35.2785C35.2305 36.4934 35.2305 36.4454 35.1825 36.4454H34.9905C34.9425 36.4454 34.9425 36.4454 34.8945 36.4934H34.8465Z"/>
<path d="M56.6805 35.5814C56.6325 35.5814 56.4885 35.5814 56.3925 35.5334H55.9605C55.5765 35.5334 55.1445 35.5334 54.7125 35.4854C54.3765 35.4854 54.0405 35.4854 53.7525 35.4374C53.3205 35.4374 52.9365 35.3894 52.5525 35.1494C52.5045 35.1494 52.4565 35.1014 52.4085 35.0054C52.0725 34.6694 51.9285 34.2374 51.9285 33.7574C51.9285 33.3254 52.0245 32.8454 52.0725 32.3654C52.2165 31.6454 52.3125 30.9254 52.3605 30.2054C52.4085 29.6294 52.4565 29.1014 52.5525 28.5254L52.6005 28.3334C52.6965 27.9014 52.7925 27.4214 52.8405 26.9894C52.8885 26.5094 52.9845 26.0294 53.0325 25.5494C53.0805 25.4534 53.0805 25.3574 53.1285 25.2614C53.1285 25.1654 53.1765 25.0214 53.1765 24.8774C53.2725 24.3974 53.3205 23.9174 53.4165 23.3894L53.7045 21.2294C53.7525 20.9414 53.8005 20.6534 53.8965 20.4134C53.9445 20.1734 53.9925 19.8854 53.9925 19.6454C54.0405 19.2134 54.0885 18.7814 54.1845 18.3494C54.2325 18.0614 54.2325 17.7254 54.2805 17.4374L54.4245 16.7654C54.4725 16.4774 54.5205 16.1894 54.5205 15.9014C54.5205 15.8534 54.5205 15.8054 54.5685 15.7094C54.6645 15.0854 54.7605 14.4134 54.9045 13.7414C54.9525 13.2614 55.0485 12.8294 55.1925 12.3494C55.2405 11.9654 55.3365 11.5334 55.3845 11.1014L55.4325 10.7654C55.5285 10.2374 55.6245 9.66142 55.6725 9.13342C55.7205 8.98942 55.7685 8.84543 55.7685 8.70142C55.8645 7.98143 56.0085 7.30943 56.1525 6.58943C56.1525 6.20543 56.2485 5.86942 56.3445 5.48543L56.4885 4.47742C56.5845 3.99743 56.6325 3.46942 56.8245 2.98942C56.8725 2.94142 56.8725 2.89342 56.8725 2.84543C56.9205 2.55742 57.0165 2.26942 57.1605 1.98143C57.3045 1.78942 57.4485 1.59742 57.7365 1.50143C58.0725 1.45342 58.3605 1.59742 58.6965 1.59742L58.9845 1.74143C59.1285 1.88542 59.2725 2.07742 59.2725 2.31742C59.2245 2.74942 59.1765 3.22942 59.0805 3.66142C59.0325 3.75743 59.0325 3.85342 59.0325 3.94943V4.09342C58.9365 4.42943 58.8885 4.76542 58.8405 5.10143C58.7445 5.43742 58.6965 5.77343 58.6005 6.10942C58.5045 6.30142 58.5525 6.49342 58.4565 6.68542C58.4085 6.87743 58.3605 7.11742 58.3605 7.30943C58.3605 7.50143 58.2645 7.69343 58.2645 7.88542C58.1685 8.31742 58.1685 8.70142 58.0725 9.08543C58.0245 9.32543 57.9765 9.51743 57.9765 9.70943C57.9765 9.90142 57.9285 10.0454 57.8805 10.1894C57.7365 10.5254 57.7365 10.8614 57.6405 11.1974C57.6885 11.4854 57.5925 11.7734 57.5445 12.0614C57.4965 12.3974 57.4965 12.7334 57.4005 13.0694C57.3525 13.0694 57.3525 13.1174 57.3525 13.1654C57.3525 13.5974 57.1605 14.0294 57.1605 14.5094C57.0645 14.7974 57.0645 15.0854 57.0165 15.3734V15.6134L56.7285 17.1494C56.7285 17.2934 56.7285 17.3894 56.6805 17.4854C56.6325 17.7254 56.5365 17.9654 56.5365 18.1574C56.5365 18.3014 56.4885 18.4454 56.4405 18.5894L56.2965 19.7894L56.1525 20.5574L55.9605 21.9014C55.9125 21.9494 55.9125 22.0454 55.9125 22.0934C55.9125 22.5254 55.7685 22.9094 55.7205 23.2934C55.7205 23.4374 55.6725 23.5814 55.6725 23.6774C55.6725 23.7734 55.6725 23.8694 55.7205 24.0134C55.5765 24.2534 55.6245 24.5894 55.5285 24.8774C55.5285 25.2614 55.4325 25.5974 55.3845 25.9814C55.2405 26.7494 55.0965 27.5174 55.0485 28.3334C55.0005 28.5734 55.0005 28.8134 54.9525 29.0054C54.9525 29.1974 54.9045 29.3894 54.9045 29.6294C54.9045 29.8214 54.9045 30.0134 54.8085 30.2534V30.5414C54.7605 30.7334 54.7605 30.9254 54.7605 31.1174C54.7125 31.3094 54.7125 31.4534 54.7125 31.6454C54.7125 32.0774 54.6645 32.4614 54.7125 32.8934L54.8565 33.0854C55.1445 33.2774 55.3845 33.3254 55.6725 33.2774C55.8645 33.2774 56.1045 33.2774 56.3445 33.3254C56.4885 33.2774 56.6805 33.2774 56.8725 33.2774H58.0245C58.3605 33.2774 58.6485 33.2294 58.9365 33.3254C59.5125 33.2294 59.9925 33.2774 60.5205 33.2774C60.7605 33.3254 60.9525 33.3734 61.1445 33.5174C61.2405 33.7094 61.2885 33.9014 61.3365 34.1414C61.2885 34.4294 61.2405 34.7174 61.1445 35.0054C61.0965 35.1494 61.0485 35.2454 60.9045 35.3414L60.2325 35.4854C59.5125 35.4854 58.7925 35.4854 58.0245 35.5334H57.2565C57.0645 35.5334 56.9205 35.5814 56.6805 35.5814Z"/>
<path d="M73.2743 35.5814C73.2262 35.5814 73.0822 35.5814 72.9862 35.5334H72.5542C72.1702 35.5334 71.7382 35.5334 71.3062 35.4854C70.9702 35.4854 70.6342 35.4854 70.3462 35.4374C69.9142 35.4374 69.5302 35.3894 69.1462 35.1494C69.0982 35.1494 69.0502 35.1014 69.0022 35.0054C68.6662 34.6694 68.5222 34.2374 68.5222 33.7574C68.5222 33.3254 68.6182 32.8454 68.6662 32.3654C68.8102 31.6454 68.9063 30.9254 68.9543 30.2054C69.0023 29.6294 69.0502 29.1014 69.1462 28.5254L69.1942 28.3334C69.2902 27.9014 69.3862 27.4214 69.4342 26.9894C69.4822 26.5094 69.5782 26.0294 69.6262 25.5494C69.6742 25.4534 69.6742 25.3574 69.7222 25.2614C69.7222 25.1654 69.7702 25.0214 69.7702 24.8774C69.8662 24.3974 69.9143 23.9174 70.0103 23.3894L70.2982 21.2294C70.3462 20.9414 70.3942 20.6534 70.4902 20.4134C70.5382 20.1734 70.5863 19.8854 70.5863 19.6454C70.6343 19.2134 70.6822 18.7814 70.7782 18.3494C70.8262 18.0614 70.8262 17.7254 70.8742 17.4374L71.0182 16.7654C71.0662 16.4774 71.1143 16.1894 71.1143 15.9014C71.1143 15.8534 71.1143 15.8054 71.1623 15.7094C71.2583 15.0854 71.3542 14.4134 71.4982 13.7414C71.5462 13.2614 71.6422 12.8294 71.7862 12.3494C71.8342 11.9654 71.9302 11.5334 71.9782 11.1014L72.0262 10.7654C72.1222 10.2374 72.2183 9.66142 72.2663 9.13342C72.3143 8.98942 72.3622 8.84543 72.3622 8.70142C72.4582 7.98143 72.6022 7.30943 72.7463 6.58943C72.7463 6.20543 72.8422 5.86942 72.9382 5.48543L73.0822 4.47742C73.1782 3.99743 73.2262 3.46942 73.4182 2.98942C73.4662 2.94142 73.4662 2.89342 73.4662 2.84543C73.5142 2.55742 73.6102 2.26942 73.7542 1.98143C73.8982 1.78942 74.0422 1.59742 74.3302 1.50143C74.6662 1.45342 74.9542 1.59742 75.2902 1.59742L75.5783 1.74143C75.7223 1.88542 75.8662 2.07742 75.8662 2.31742C75.8182 2.74942 75.7702 3.22942 75.6742 3.66142C75.6262 3.75743 75.6262 3.85342 75.6262 3.94943V4.09342C75.5302 4.42943 75.4822 4.76542 75.4342 5.10143C75.3382 5.43742 75.2902 5.77343 75.1942 6.10942C75.0982 6.30142 75.1462 6.49342 75.0502 6.68542C75.0022 6.87743 74.9543 7.11742 74.9543 7.30943C74.9543 7.50143 74.8582 7.69343 74.8582 7.88542C74.7622 8.31742 74.7622 8.70142 74.6662 9.08543C74.6182 9.32543 74.5702 9.51743 74.5702 9.70943C74.5702 9.90142 74.5223 10.0454 74.4743 10.1894C74.3303 10.5254 74.3302 10.8614 74.2342 11.1974C74.2822 11.4854 74.1862 11.7734 74.1382 12.0614C74.0902 12.3974 74.0902 12.7334 73.9942 13.0694C73.9462 13.0694 73.9462 13.1174 73.9462 13.1654C73.9462 13.5974 73.7542 14.0294 73.7542 14.5094C73.6582 14.7974 73.6582 15.0854 73.6102 15.3734V15.6134L73.3223 17.1494C73.3223 17.2934 73.3223 17.3894 73.2743 17.4854C73.2262 17.7254 73.1302 17.9654 73.1302 18.1574C73.1302 18.3014 73.0822 18.4454 73.0342 18.5894L72.8902 19.7894L72.7463 20.5574L72.5542 21.9014C72.5062 21.9494 72.5062 22.0454 72.5062 22.0934C72.5062 22.5254 72.3622 22.9094 72.3142 23.2934C72.3142 23.4374 72.2663 23.5814 72.2663 23.6774C72.2663 23.7734 72.2662 23.8694 72.3142 24.0134C72.1702 24.2534 72.2182 24.5894 72.1222 24.8774C72.1222 25.2614 72.0262 25.5974 71.9782 25.9814C71.8342 26.7494 71.6903 27.5174 71.6423 28.3334C71.5943 28.5734 71.5942 28.8134 71.5462 29.0054C71.5462 29.1974 71.4982 29.3894 71.4982 29.6294C71.4982 29.8214 71.4982 30.0134 71.4022 30.2534V30.5414C71.3542 30.7334 71.3542 30.9254 71.3542 31.1174C71.3062 31.3094 71.3062 31.4534 71.3062 31.6454C71.3062 32.0774 71.2582 32.4614 71.3062 32.8934L71.4502 33.0854C71.7382 33.2774 71.9783 33.3254 72.2663 33.2774C72.4583 33.2774 72.6982 33.2774 72.9382 33.3254C73.0822 33.2774 73.2742 33.2774 73.4662 33.2774H74.6182C74.9542 33.2774 75.2423 33.2294 75.5303 33.3254C76.1063 33.2294 76.5862 33.2774 77.1143 33.2774C77.3542 33.3254 77.5463 33.3734 77.7383 33.5174C77.8343 33.7094 77.8822 33.9014 77.9302 34.1414C77.8822 34.4294 77.8343 34.7174 77.7383 35.0054C77.6903 35.1494 77.6422 35.2454 77.4982 35.3414L76.8262 35.4854C76.1062 35.4854 75.3862 35.4854 74.6182 35.5334H73.8503C73.6582 35.5334 73.5143 35.5814 73.2743 35.5814Z"/>
<path d="M96.0919 36.6854C95.8039 36.5894 95.5639 36.4934 95.3239 36.3494C95.1319 36.2054 94.9879 36.0614 94.9399 35.8694C94.8439 35.4374 94.7959 34.9574 94.8919 34.5254C94.9399 33.9494 94.9399 33.4214 94.9399 32.8454V32.1734C94.9879 31.6454 94.9879 31.1654 95.0359 30.6854C95.0359 30.4934 95.0359 30.3014 95.0839 30.1094C95.1319 29.0054 95.2279 27.8534 95.1799 26.7494C95.1319 26.1734 95.1319 25.5974 95.1799 24.9734C95.2279 24.5894 95.2279 24.2054 95.2279 23.8214C95.2279 23.6294 95.1799 23.4374 95.1799 23.2454C95.1319 23.0054 94.9879 22.9094 94.7479 22.8614L94.1239 22.7174C93.4999 22.7654 92.9239 22.8134 92.2999 22.7654H92.0119C91.5799 22.8614 91.0999 22.8614 90.6679 22.8134C90.3799 22.8134 90.1399 22.8614 89.8999 22.9094C89.5639 23.0054 89.3239 23.1494 89.1319 23.3414C88.9399 23.6294 88.6999 23.8694 88.6039 24.1574C88.2199 24.9254 87.9319 25.6934 87.7399 26.4614C87.6919 26.7974 87.5479 27.0854 87.4519 27.4214C86.8279 28.8614 86.3479 30.3974 85.7719 31.9334C85.7239 32.1734 85.5799 32.4134 85.4839 32.6534C85.3399 32.9414 85.2439 33.2774 85.0999 33.5654C84.9559 33.8054 84.9079 34.0934 84.7639 34.3814C84.5719 34.8134 84.3799 35.2454 84.1399 35.6774C84.0439 35.9174 83.8519 36.1574 83.6599 36.3014C83.5639 36.3974 83.4199 36.4454 83.2759 36.3974C82.9879 36.3494 82.6519 36.2534 82.3639 36.1574C82.2679 36.1094 82.1719 36.0614 82.1239 35.9654C81.9799 35.8214 81.8839 35.6774 81.8359 35.4854C81.7879 35.2934 81.7879 35.1494 81.8359 34.9574C81.9799 34.5254 82.1239 34.0934 82.3159 33.7094C82.5079 33.2294 82.6999 32.7974 82.8439 32.3174C82.8919 32.0774 82.9879 31.8854 83.0839 31.6934C83.3239 31.1174 83.5159 30.4934 83.7559 29.9174C83.9479 29.3414 84.1879 28.7654 84.4759 28.1894C84.6199 27.9014 84.7639 27.5654 84.8119 27.1814C84.9079 26.8454 85.0519 26.5094 85.1959 26.1734C85.5319 25.4534 85.8199 24.6854 86.1559 23.9174C86.5399 22.8614 86.9719 21.7574 87.3079 20.7014C87.5959 20.0774 87.7879 19.4054 88.0279 18.7814C88.3159 18.1574 88.5559 17.5334 88.7959 16.9574L89.9479 14.0294C90.3319 13.1174 90.7159 12.2054 91.0519 11.2934C91.0999 11.1494 91.1959 11.0054 91.2439 10.8614C91.4839 10.3814 91.6759 9.90142 91.8679 9.42142C92.0119 8.98942 92.2039 8.55742 92.3959 8.12542C92.5399 7.69343 92.7319 7.26143 92.8759 6.82943C93.1639 6.10942 93.4519 5.38942 93.7879 4.66943C94.0279 4.04542 94.3159 3.46942 94.6039 2.89342C94.8439 2.36542 95.1319 1.83742 95.4199 1.30943C95.5639 1.06943 95.8039 0.877425 96.1399 0.829426C96.2359 0.781423 96.3319 0.781423 96.3799 0.733424C96.8599 0.637425 97.2439 0.685425 97.6279 0.877425C97.7239 0.925424 97.8199 0.973424 97.8679 1.06943C98.0119 1.16542 98.1079 1.30943 98.1079 1.45342V2.17343C98.1559 2.70142 98.1079 3.27743 98.1079 3.85342C98.1559 4.33342 98.1559 4.86143 98.1559 5.38942C98.1079 6.01342 98.1079 6.58943 98.0599 7.16542V8.46142C98.0599 9.08543 98.0599 9.70943 98.0119 10.3334C97.9639 10.6694 97.9159 11.0054 98.0119 11.3894C97.9639 11.8214 97.9639 12.2534 97.9639 12.6854C97.9639 13.8854 97.9159 15.1334 97.9159 16.3814C97.9159 17.2454 97.9639 18.1094 97.8679 18.9254V19.8374C97.7719 20.5094 97.8199 21.1814 97.8199 21.9014V22.4774C97.7239 23.5334 97.7239 24.5894 97.7239 25.5974V26.3174C97.7239 26.6054 97.6759 26.8934 97.6759 27.1814C97.6759 27.7094 97.7239 28.2374 97.6759 28.7654C97.7239 29.1014 97.6279 29.4854 97.6759 29.8214V30.0134C97.5799 30.3974 97.6279 30.8294 97.5799 31.2134C97.5799 31.7894 97.5319 32.3654 97.4839 32.9894V33.5654C97.4839 34.2854 97.3879 35.0054 97.2919 35.7254C97.2919 35.9654 97.1959 36.2054 97.0039 36.3974C96.8599 36.5894 96.7159 36.6854 96.5239 36.6854C96.3799 36.7334 96.2359 36.6854 96.0919 36.6854ZM91.4359 20.5574C92.0599 20.5574 92.7319 20.5094 93.4039 20.5094C93.9319 20.5094 94.4119 20.3654 94.9399 20.2694C95.1319 20.1734 95.3239 20.0774 95.3719 19.7894C95.4199 19.5494 95.4679 19.3574 95.4679 19.1174C95.5159 18.5414 95.5159 18.0134 95.5159 17.4374C95.5159 17.2454 95.4679 17.0534 95.4679 16.8134C95.5639 16.2374 95.5159 15.5654 95.5159 14.8934C95.5159 14.5574 95.4679 14.1734 95.5159 13.8374C95.5639 13.2614 95.5639 12.6374 95.5639 12.0614C95.6119 11.1974 95.6119 10.3334 95.6119 9.51743C95.5639 8.84543 95.5639 8.17343 95.5639 7.54943V7.45342C95.5159 7.35742 95.5159 7.30943 95.4679 7.30943C95.3719 7.26143 95.3239 7.30943 95.2759 7.35742C95.1319 7.59742 95.0359 7.83742 94.9399 8.07742C94.6999 8.65343 94.4599 9.22942 94.1719 9.75743C93.9799 10.1894 93.8359 10.6214 93.6439 11.0534C93.5479 11.2934 93.4519 11.5814 93.3079 11.8694L93.0199 12.6854C92.7319 13.3094 92.5399 13.9814 92.2999 14.6054C91.9639 15.4214 91.6759 16.2854 91.4359 17.1014C91.1959 17.9174 90.9079 18.7334 90.5719 19.5014C90.5239 19.5974 90.4759 19.6934 90.4759 19.7894C90.4279 19.9814 90.3799 20.1734 90.4759 20.3654L90.6199 20.5094C90.9079 20.5574 91.1479 20.5574 91.4359 20.5574Z"/>
<path d="M129.75 37.1654C129.558 37.1174 129.366 37.0214 129.222 36.9254C129.078 36.7814 128.934 36.6854 128.79 36.5894C128.55 36.3014 128.454 35.9654 128.31 35.6774C128.166 35.3414 127.974 34.9574 127.878 34.5734C127.83 34.1894 127.686 33.8534 127.542 33.4694C127.302 32.7974 127.11 32.1734 126.966 31.5014C126.822 30.7814 126.678 30.0614 126.486 29.3894C126.438 29.1014 126.39 28.8614 126.294 28.6214C126.246 28.3334 126.102 28.1414 125.958 27.9014C125.814 27.7574 125.574 27.7574 125.43 27.9014C125.334 27.9494 125.238 28.0454 125.142 28.1414L124.518 29.1494L123.27 31.0214L122.982 31.5494C122.838 31.8374 122.694 32.1254 122.454 32.3654C121.974 33.0374 121.59 33.7574 121.11 34.4294L120.63 35.1494C120.198 35.8214 120.198 35.8214 119.526 36.3974C118.854 36.6374 118.326 36.4454 117.846 35.9654C117.702 35.8214 117.606 35.6774 117.558 35.6294C117.462 35.3894 117.414 35.1974 117.366 35.0054V34.8134C117.462 34.0934 117.462 33.3734 117.462 32.6534C117.51 31.9334 117.51 31.2134 117.558 30.4934V30.3014C117.654 29.7254 117.606 29.1974 117.654 28.6214C117.654 27.3254 117.654 26.0774 117.798 24.7814C117.846 24.2534 117.846 23.7734 117.894 23.2454C117.894 22.8134 117.894 22.4294 117.942 22.0454C118.038 21.1814 118.038 20.3654 118.086 19.5014C118.086 18.7334 118.134 18.0134 118.086 17.2454C118.086 16.9094 118.086 16.5734 118.134 16.2374C118.23 15.4694 118.23 14.6054 118.23 13.7894C118.23 13.2614 118.278 12.6854 118.278 12.1574C118.278 11.8214 118.278 11.4854 118.374 11.1494C118.422 10.9094 118.422 10.6214 118.422 10.3814C118.47 9.99743 118.47 9.61342 118.47 9.18142C118.47 8.74942 118.47 8.26942 118.566 7.83742C118.566 7.59742 118.566 7.35742 118.614 7.16542C118.614 6.58943 118.662 6.01342 118.662 5.48543C118.71 4.33342 118.806 3.18142 118.902 2.02942C118.95 1.88542 118.998 1.69342 119.094 1.50143C119.142 1.35742 119.286 1.26142 119.478 1.21342C119.862 1.21342 120.246 1.26142 120.63 1.40542C120.822 1.45342 120.966 1.59742 121.11 1.74143C121.254 1.88542 121.35 2.02942 121.35 2.22142C121.446 2.70142 121.494 3.22942 121.446 3.70943C121.398 4.14142 121.398 4.57342 121.398 4.95742C121.398 5.38942 121.398 5.82142 121.302 6.25342C121.254 6.54142 121.254 6.82943 121.254 7.11742C121.254 8.02942 121.206 8.98942 121.11 9.90142C121.014 10.4774 121.014 11.0534 121.014 11.6294V12.8294C121.014 13.3094 121.014 13.7894 120.918 14.2694C120.87 14.5574 120.87 14.7974 120.87 15.0854V15.6614C120.822 16.1414 120.822 16.5734 120.822 17.0534C120.87 17.8214 120.822 18.5894 120.726 19.4054C120.678 19.7894 120.63 20.1734 120.678 20.5574C120.678 21.4694 120.63 22.3814 120.582 23.2934V23.8214C120.486 24.5414 120.438 25.3094 120.39 26.0774C120.39 26.3654 120.39 26.7014 120.342 27.0374C120.246 28.1894 120.198 29.3894 120.15 30.5414C120.15 30.6374 120.198 30.6854 120.198 30.7334C120.246 30.8774 120.39 30.9254 120.534 30.8774C120.63 30.8294 120.678 30.7814 120.726 30.6854C121.062 30.2534 121.398 29.8214 121.734 29.3414L123.414 26.4614C123.654 26.0774 123.894 25.7414 124.086 25.3574C124.182 25.2134 124.278 25.1174 124.326 24.9734C124.662 24.3014 125.142 23.7254 125.526 23.1494L125.814 22.8614C126.006 22.7174 126.198 22.6694 126.438 22.7174L127.302 22.8614C127.638 23.1014 127.734 23.3414 127.83 23.5334C127.974 24.0134 128.118 24.4454 128.214 24.9254C128.454 25.7894 128.694 26.6534 128.838 27.5654C128.886 27.8534 128.982 28.0934 129.03 28.3334C129.126 28.6694 129.222 29.0054 129.27 29.3894L129.366 29.7734C129.51 30.2054 129.654 30.6374 129.702 31.1174C129.75 31.3094 129.846 31.4534 130.038 31.5974C130.182 31.7414 130.422 31.6934 130.518 31.5014C130.566 31.4534 130.614 31.4054 130.614 31.3574C130.71 31.1174 130.806 30.8774 130.854 30.5894C130.998 29.9174 131.19 29.2934 131.43 28.6214C131.766 27.7574 132.054 26.8934 132.246 25.9814C132.342 25.6454 132.486 25.3094 132.582 24.9734C132.918 23.6774 133.35 22.3814 133.686 21.0854C133.734 20.8934 133.782 20.6534 133.878 20.4614C134.118 19.6454 134.358 18.8774 134.646 18.1094L134.934 17.1974C135.03 16.7654 135.126 16.3334 135.27 15.9494C135.366 15.6614 135.414 15.3734 135.558 15.1334C135.702 14.7014 135.894 14.3174 135.942 13.8854C136.23 13.0694 136.47 12.2054 136.758 11.3894C136.902 10.9574 136.998 10.5734 137.142 10.1894C137.286 9.80542 137.382 9.42142 137.526 9.03743C137.718 8.60543 137.766 8.17343 137.91 7.74143C138.054 7.21342 138.198 6.63743 138.39 6.15743C138.774 5.10143 139.158 4.04542 139.494 2.98942C139.59 2.55742 139.782 2.17343 139.974 1.78942C140.022 1.74143 140.07 1.64542 140.166 1.54943C140.214 1.50143 140.262 1.45342 140.31 1.45342C140.55 1.35742 140.79 1.35742 141.078 1.40542L141.414 1.59742C141.798 1.69342 141.942 1.98143 141.99 2.31742C141.894 3.22942 141.654 4.14142 141.366 5.00542C141.03 5.96543 140.742 6.92542 140.406 7.88542C140.358 7.98143 140.31 8.07742 140.31 8.17343C140.166 8.84543 139.878 9.46943 139.686 10.1414L139.11 11.9174C139.062 12.1094 139.014 12.2534 138.918 12.4454L138.726 13.2134C138.534 13.9814 138.294 14.7014 138.006 15.4694C137.814 15.9494 137.622 16.5734 137.478 17.1494C137.334 17.8214 137.142 18.5414 136.854 19.2134L136.71 19.7894L135.99 21.9014C135.798 22.6214 135.606 23.2934 135.366 24.0134C135.318 24.3014 135.222 24.6374 135.126 24.9254C135.126 24.9734 135.078 24.9734 135.078 25.0214C134.886 25.5014 134.886 26.0774 134.694 26.5574C134.502 26.9894 134.358 27.4694 134.262 27.9494C134.118 28.6694 133.878 29.3414 133.638 30.0134C133.494 30.5414 133.302 31.0694 133.158 31.5974C132.918 32.5094 132.678 33.3734 132.39 34.2374C132.342 34.3814 132.294 34.5254 132.294 34.6214C132.198 34.9094 132.15 35.1494 132.006 35.3894C131.91 35.5814 131.862 35.8214 131.766 36.0134L131.478 36.5414C131.334 36.7814 131.094 36.9734 130.806 37.1174C130.758 37.1174 130.71 37.1654 130.614 37.1654C130.326 37.2134 130.038 37.2134 129.75 37.1654Z"/>
<path d="M154.404 36.6854C154.116 36.5894 153.876 36.4934 153.636 36.3494C153.444 36.2054 153.3 36.0614 153.252 35.8694C153.156 35.4374 153.108 34.9574 153.204 34.5254C153.252 33.9494 153.252 33.4214 153.252 32.8454V32.1734C153.3 31.6454 153.3 31.1654 153.348 30.6854C153.348 30.4934 153.348 30.3014 153.396 30.1094C153.444 29.0054 153.54 27.8534 153.492 26.7494C153.444 26.1734 153.444 25.5974 153.492 24.9734C153.54 24.5894 153.54 24.2054 153.54 23.8214C153.54 23.6294 153.492 23.4374 153.492 23.2454C153.444 23.0054 153.3 22.9094 153.06 22.8614L152.436 22.7174C151.812 22.7654 151.236 22.8134 150.612 22.7654H150.324C149.892 22.8614 149.412 22.8614 148.98 22.8134C148.692 22.8134 148.452 22.8614 148.212 22.9094C147.876 23.0054 147.636 23.1494 147.444 23.3414C147.252 23.6294 147.012 23.8694 146.916 24.1574C146.532 24.9254 146.244 25.6934 146.052 26.4614C146.004 26.7974 145.86 27.0854 145.764 27.4214C145.14 28.8614 144.66 30.3974 144.084 31.9334C144.036 32.1734 143.892 32.4134 143.796 32.6534C143.652 32.9414 143.556 33.2774 143.412 33.5654C143.268 33.8054 143.22 34.0934 143.076 34.3814C142.884 34.8134 142.692 35.2454 142.452 35.6774C142.356 35.9174 142.164 36.1574 141.972 36.3014C141.876 36.3974 141.732 36.4454 141.588 36.3974C141.3 36.3494 140.964 36.2534 140.676 36.1574C140.58 36.1094 140.484 36.0614 140.436 35.9654C140.292 35.8214 140.196 35.6774 140.148 35.4854C140.1 35.2934 140.1 35.1494 140.148 34.9574C140.292 34.5254 140.436 34.0934 140.628 33.7094C140.82 33.2294 141.012 32.7974 141.156 32.3174C141.204 32.0774 141.3 31.8854 141.396 31.6934C141.636 31.1174 141.828 30.4934 142.068 29.9174C142.26 29.3414 142.5 28.7654 142.788 28.1894C142.932 27.9014 143.076 27.5654 143.124 27.1814C143.22 26.8454 143.364 26.5094 143.508 26.1734C143.844 25.4534 144.132 24.6854 144.468 23.9174C144.852 22.8614 145.284 21.7574 145.62 20.7014C145.908 20.0774 146.1 19.4054 146.34 18.7814C146.628 18.1574 146.868 17.5334 147.108 16.9574L148.26 14.0294C148.644 13.1174 149.028 12.2054 149.364 11.2934C149.412 11.1494 149.508 11.0054 149.556 10.8614C149.796 10.3814 149.988 9.90142 150.18 9.42142C150.324 8.98942 150.516 8.55742 150.708 8.12542C150.852 7.69343 151.044 7.26143 151.188 6.82943C151.476 6.10942 151.764 5.38942 152.1 4.66943C152.34 4.04542 152.628 3.46942 152.916 2.89342C153.156 2.36542 153.444 1.83742 153.732 1.30943C153.876 1.06943 154.116 0.877425 154.452 0.829426C154.548 0.781423 154.644 0.781423 154.692 0.733424C155.172 0.637425 155.556 0.685425 155.94 0.877425C156.036 0.925424 156.132 0.973424 156.18 1.06943C156.324 1.16542 156.42 1.30943 156.42 1.45342V2.17343C156.468 2.70142 156.42 3.27743 156.42 3.85342C156.468 4.33342 156.468 4.86143 156.468 5.38942C156.42 6.01342 156.42 6.58943 156.372 7.16542V8.46142C156.372 9.08543 156.372 9.70943 156.324 10.3334C156.276 10.6694 156.228 11.0054 156.324 11.3894C156.276 11.8214 156.276 12.2534 156.276 12.6854C156.276 13.8854 156.228 15.1334 156.228 16.3814C156.228 17.2454 156.276 18.1094 156.18 18.9254V19.8374C156.084 20.5094 156.132 21.1814 156.132 21.9014V22.4774C156.036 23.5334 156.036 24.5894 156.036 25.5974V26.3174C156.036 26.6054 155.988 26.8934 155.988 27.1814C155.988 27.7094 156.036 28.2374 155.988 28.7654C156.036 29.1014 155.94 29.4854 155.988 29.8214V30.0134C155.892 30.3974 155.94 30.8294 155.892 31.2134C155.892 31.7894 155.844 32.3654 155.796 32.9894V33.5654C155.796 34.2854 155.7 35.0054 155.604 35.7254C155.604 35.9654 155.508 36.2054 155.316 36.3974C155.172 36.5894 155.028 36.6854 154.836 36.6854C154.692 36.7334 154.548 36.6854 154.404 36.6854ZM149.748 20.5574C150.372 20.5574 151.044 20.5094 151.716 20.5094C152.244 20.5094 152.724 20.3654 153.252 20.2694C153.444 20.1734 153.636 20.0774 153.684 19.7894C153.732 19.5494 153.78 19.3574 153.78 19.1174C153.828 18.5414 153.828 18.0134 153.828 17.4374C153.828 17.2454 153.78 17.0534 153.78 16.8134C153.876 16.2374 153.828 15.5654 153.828 14.8934C153.828 14.5574 153.78 14.1734 153.828 13.8374C153.876 13.2614 153.876 12.6374 153.876 12.0614C153.924 11.1974 153.924 10.3334 153.924 9.51743C153.876 8.84543 153.876 8.17343 153.876 7.54943V7.45342C153.828 7.35742 153.828 7.30943 153.78 7.30943C153.684 7.26143 153.636 7.30943 153.588 7.35742C153.444 7.59742 153.348 7.83742 153.252 8.07742C153.012 8.65343 152.772 9.22942 152.484 9.75743C152.292 10.1894 152.148 10.6214 151.956 11.0534C151.86 11.2934 151.764 11.5814 151.62 11.8694L151.332 12.6854C151.044 13.3094 150.852 13.9814 150.612 14.6054C150.276 15.4214 149.988 16.2854 149.748 17.1014C149.508 17.9174 149.22 18.7334 148.884 19.5014C148.836 19.5974 148.788 19.6934 148.788 19.7894C148.74 19.9814 148.692 20.1734 148.788 20.3654L148.932 20.5094C149.22 20.5574 149.46 20.5574 149.748 20.5574Z"/>
<path d="M167.962 35.5814C167.914 35.5814 167.77 35.5814 167.674 35.5334H167.242C166.858 35.5334 166.426 35.5334 165.994 35.4854C165.658 35.4854 165.322 35.4854 165.034 35.4374C164.602 35.4374 164.218 35.3894 163.834 35.1494C163.786 35.1494 163.738 35.1014 163.69 35.0054C163.354 34.6694 163.21 34.2374 163.21 33.7574C163.21 33.3254 163.306 32.8454 163.354 32.3654C163.498 31.6454 163.594 30.9254 163.642 30.2054C163.69 29.6294 163.738 29.1014 163.834 28.5254L163.882 28.3334C163.978 27.9014 164.074 27.4214 164.122 26.9894C164.17 26.5094 164.266 26.0294 164.314 25.5494C164.362 25.4534 164.362 25.3574 164.41 25.2614C164.41 25.1654 164.458 25.0214 164.458 24.8774C164.554 24.3974 164.602 23.9174 164.698 23.3894L164.986 21.2294C165.034 20.9414 165.082 20.6534 165.178 20.4134C165.226 20.1734 165.274 19.8854 165.274 19.6454C165.322 19.2134 165.37 18.7814 165.466 18.3494C165.514 18.0614 165.514 17.7254 165.562 17.4374L165.706 16.7654C165.754 16.4774 165.802 16.1894 165.802 15.9014C165.802 15.8534 165.802 15.8054 165.85 15.7094C165.946 15.0854 166.042 14.4134 166.186 13.7414C166.234 13.2614 166.33 12.8294 166.474 12.3494C166.522 11.9654 166.618 11.5334 166.666 11.1014L166.714 10.7654C166.81 10.2374 166.906 9.66142 166.954 9.13342C167.002 8.98942 167.05 8.84543 167.05 8.70142C167.146 7.98143 167.29 7.30943 167.434 6.58943C167.434 6.20543 167.53 5.86942 167.626 5.48543L167.77 4.47742C167.866 3.99743 167.914 3.46942 168.106 2.98942C168.154 2.94142 168.154 2.89342 168.154 2.84543C168.202 2.55742 168.298 2.26942 168.442 1.98143C168.586 1.78942 168.73 1.59742 169.018 1.50143C169.354 1.45342 169.642 1.59742 169.978 1.59742L170.266 1.74143C170.41 1.88542 170.554 2.07742 170.554 2.31742C170.506 2.74942 170.458 3.22942 170.362 3.66142C170.314 3.75743 170.314 3.85342 170.314 3.94943V4.09342C170.218 4.42943 170.17 4.76542 170.122 5.10143C170.026 5.43742 169.978 5.77343 169.882 6.10942C169.786 6.30142 169.834 6.49342 169.738 6.68542C169.69 6.87743 169.642 7.11742 169.642 7.30943C169.642 7.50143 169.546 7.69343 169.546 7.88542C169.45 8.31742 169.45 8.70142 169.354 9.08543C169.306 9.32543 169.258 9.51743 169.258 9.70943C169.258 9.90142 169.21 10.0454 169.162 10.1894C169.018 10.5254 169.018 10.8614 168.922 11.1974C168.97 11.4854 168.874 11.7734 168.826 12.0614C168.778 12.3974 168.778 12.7334 168.682 13.0694C168.634 13.0694 168.634 13.1174 168.634 13.1654C168.634 13.5974 168.442 14.0294 168.442 14.5094C168.346 14.7974 168.346 15.0854 168.298 15.3734V15.6134L168.01 17.1494C168.01 17.2934 168.01 17.3894 167.962 17.4854C167.914 17.7254 167.818 17.9654 167.818 18.1574C167.818 18.3014 167.77 18.4454 167.722 18.5894L167.578 19.7894L167.434 20.5574L167.242 21.9014C167.194 21.9494 167.194 22.0454 167.194 22.0934C167.194 22.5254 167.05 22.9094 167.002 23.2934C167.002 23.4374 166.954 23.5814 166.954 23.6774C166.954 23.7734 166.954 23.8694 167.002 24.0134C166.858 24.2534 166.906 24.5894 166.81 24.8774C166.81 25.2614 166.714 25.5974 166.666 25.9814C166.522 26.7494 166.378 27.5174 166.33 28.3334C166.282 28.5734 166.282 28.8134 166.234 29.0054C166.234 29.1974 166.186 29.3894 166.186 29.6294C166.186 29.8214 166.186 30.0134 166.09 30.2534V30.5414C166.042 30.7334 166.042 30.9254 166.042 31.1174C165.994 31.3094 165.994 31.4534 165.994 31.6454C165.994 32.0774 165.946 32.4614 165.994 32.8934L166.138 33.0854C166.426 33.2774 166.666 33.3254 166.954 33.2774C167.146 33.2774 167.386 33.2774 167.626 33.3254C167.77 33.2774 167.962 33.2774 168.154 33.2774H169.306C169.642 33.2774 169.93 33.2294 170.218 33.3254C170.794 33.2294 171.274 33.2774 171.802 33.2774C172.042 33.3254 172.234 33.3734 172.426 33.5174C172.522 33.7094 172.57 33.9014 172.618 34.1414C172.57 34.4294 172.522 34.7174 172.426 35.0054C172.378 35.1494 172.33 35.2454 172.186 35.3414L171.514 35.4854C170.794 35.4854 170.074 35.4854 169.306 35.5334H168.538C168.346 35.5334 168.202 35.5814 167.962 35.5814Z"/>
<path d="M184.555 35.5814C184.507 35.5814 184.364 35.5814 184.268 35.5334H183.835C183.451 35.5334 183.019 35.5334 182.587 35.4854C182.251 35.4854 181.916 35.4854 181.628 35.4374C181.196 35.4374 180.812 35.3894 180.428 35.1494C180.38 35.1494 180.331 35.1014 180.283 35.0054C179.947 34.6694 179.803 34.2374 179.803 33.7574C179.803 33.3254 179.899 32.8454 179.947 32.3654C180.091 31.6454 180.188 30.9254 180.236 30.2054C180.284 29.6294 180.332 29.1014 180.428 28.5254L180.475 28.3334C180.571 27.9014 180.667 27.4214 180.715 26.9894C180.763 26.5094 180.86 26.0294 180.908 25.5494C180.956 25.4534 180.955 25.3574 181.003 25.2614C181.003 25.1654 181.051 25.0214 181.051 24.8774C181.147 24.3974 181.196 23.9174 181.292 23.3894L181.579 21.2294C181.627 20.9414 181.675 20.6534 181.771 20.4134C181.819 20.1734 181.867 19.8854 181.867 19.6454C181.915 19.2134 181.963 18.7814 182.059 18.3494C182.107 18.0614 182.108 17.7254 182.156 17.4374L182.299 16.7654C182.347 16.4774 182.395 16.1894 182.395 15.9014C182.395 15.8534 182.395 15.8054 182.443 15.7094C182.539 15.0854 182.635 14.4134 182.779 13.7414C182.827 13.2614 182.924 12.8294 183.068 12.3494C183.116 11.9654 183.212 11.5334 183.26 11.1014L183.307 10.7654C183.403 10.2374 183.5 9.66142 183.548 9.13342C183.596 8.98942 183.643 8.84543 183.643 8.70142C183.739 7.98143 183.883 7.30943 184.027 6.58943C184.027 6.20543 184.123 5.86942 184.219 5.48543L184.363 4.47742C184.459 3.99743 184.507 3.46942 184.699 2.98942C184.747 2.94142 184.747 2.89342 184.747 2.84543C184.795 2.55742 184.891 2.26942 185.035 1.98143C185.179 1.78942 185.323 1.59742 185.611 1.50143C185.947 1.45342 186.236 1.59742 186.572 1.59742L186.859 1.74143C187.003 1.88542 187.147 2.07742 187.147 2.31742C187.099 2.74942 187.052 3.22942 186.956 3.66142C186.908 3.75743 186.908 3.85342 186.908 3.94943V4.09342C186.812 4.42943 186.763 4.76542 186.715 5.10143C186.619 5.43742 186.571 5.77343 186.475 6.10942C186.379 6.30142 186.427 6.49342 186.331 6.68542C186.283 6.87743 186.236 7.11742 186.236 7.30943C186.236 7.50143 186.139 7.69343 186.139 7.88542C186.043 8.31742 186.043 8.70142 185.947 9.08543C185.899 9.32543 185.852 9.51743 185.852 9.70943C185.852 9.90142 185.803 10.0454 185.755 10.1894C185.611 10.5254 185.612 10.8614 185.516 11.1974C185.564 11.4854 185.467 11.7734 185.419 12.0614C185.371 12.3974 185.371 12.7334 185.275 13.0694C185.227 13.0694 185.227 13.1174 185.227 13.1654C185.227 13.5974 185.035 14.0294 185.035 14.5094C184.939 14.7974 184.939 15.0854 184.891 15.3734V15.6134L184.604 17.1494C184.604 17.2934 184.603 17.3894 184.555 17.4854C184.507 17.7254 184.411 17.9654 184.411 18.1574C184.411 18.3014 184.364 18.4454 184.316 18.5894L184.171 19.7894L184.027 20.5574L183.835 21.9014C183.787 21.9494 183.788 22.0454 183.788 22.0934C183.788 22.5254 183.644 22.9094 183.596 23.2934C183.596 23.4374 183.548 23.5814 183.548 23.6774C183.548 23.7734 183.548 23.8694 183.596 24.0134C183.452 24.2534 183.5 24.5894 183.404 24.8774C183.404 25.2614 183.308 25.5974 183.26 25.9814C183.116 26.7494 182.971 27.5174 182.923 28.3334C182.875 28.5734 182.875 28.8134 182.827 29.0054C182.827 29.1974 182.779 29.3894 182.779 29.6294C182.779 29.8214 182.78 30.0134 182.684 30.2534V30.5414C182.636 30.7334 182.635 30.9254 182.635 31.1174C182.587 31.3094 182.587 31.4534 182.587 31.6454C182.587 32.0774 182.539 32.4614 182.587 32.8934L182.732 33.0854C183.02 33.2774 183.26 33.3254 183.548 33.2774C183.74 33.2774 183.979 33.2774 184.219 33.3254C184.363 33.2774 184.555 33.2774 184.747 33.2774H185.9C186.236 33.2774 186.523 33.2294 186.811 33.3254C187.387 33.2294 187.867 33.2774 188.395 33.2774C188.635 33.3254 188.828 33.3734 189.02 33.5174C189.116 33.7094 189.164 33.9014 189.212 34.1414C189.164 34.4294 189.116 34.7174 189.02 35.0054C188.972 35.1494 188.923 35.2454 188.779 35.3414L188.107 35.4854C187.387 35.4854 186.668 35.4854 185.9 35.5334H185.132C184.939 35.5334 184.795 35.5814 184.555 35.5814Z"/>
<path d="M196.084 34.6214C195.988 34.5254 195.844 34.4774 195.7 34.3814C195.652 34.2374 195.556 34.1414 195.508 33.9974C195.46 33.8054 195.46 33.5654 195.46 33.3254C195.508 33.1334 195.604 32.8934 195.796 32.7494C195.892 32.7014 195.988 32.7014 196.084 32.6534C196.372 32.6534 196.612 32.6054 196.9 32.6054C197.14 32.5574 197.38 32.5574 197.668 32.5574C197.908 32.5574 198.148 32.5094 198.34 32.4614C198.628 32.2694 198.772 32.0294 198.82 31.7894C198.868 31.6454 198.916 31.5014 198.916 31.3574C198.964 30.7814 199.06 30.2534 199.108 29.7254C199.204 29.3414 199.252 28.9094 199.3 28.5254C199.396 28.1894 199.396 27.8534 199.444 27.5174C199.444 27.3254 199.492 27.1814 199.492 26.9894C199.54 26.8454 199.54 26.7014 199.588 26.5094C199.588 26.4614 199.636 26.3654 199.636 26.2694C199.636 25.8854 199.684 25.5014 199.732 25.1174C199.732 24.9734 199.732 24.8294 199.78 24.7334C199.828 24.1574 199.924 23.5814 200.02 23.0054V22.8614C199.972 22.4774 200.068 22.0454 200.116 21.6614C200.212 21.1814 200.26 20.7014 200.356 20.2214L200.5 19.1174C200.596 18.6854 200.644 18.2534 200.74 17.7734C200.74 17.4854 200.788 17.2454 200.836 16.9574C200.884 16.7654 200.884 16.6214 200.884 16.4294C200.932 16.3334 200.932 16.1894 200.98 16.0934C201.028 15.7574 201.124 15.4214 201.172 15.0854L201.316 13.9334L201.46 13.0694C201.556 12.7334 201.604 12.3974 201.652 12.0134C201.7 11.9174 201.7 11.8214 201.7 11.6774C201.7 11.2454 201.796 10.8614 201.94 10.4294C201.94 10.3334 201.988 10.2374 201.988 10.1414C201.988 9.85342 202.084 9.51743 202.132 9.22942C202.276 8.50942 202.468 7.78942 202.612 7.06943L202.756 6.58943C202.804 6.30142 202.9 6.01342 202.948 5.67742C202.9 5.58142 202.9 5.43742 202.852 5.34142C202.756 5.24542 202.708 5.19742 202.612 5.19742L202.18 5.05343H201.844C201.556 5.05343 201.316 5.05343 201.076 5.00542C200.932 4.95742 200.74 4.95742 200.548 4.95742C200.356 4.86143 200.164 4.81343 199.924 4.71742C199.828 4.62143 199.732 4.52542 199.588 4.42943C199.492 4.14142 199.396 3.90142 199.492 3.61342C199.54 3.46942 199.588 3.32543 199.636 3.08543L199.828 2.94142C199.972 2.84543 200.116 2.79742 200.26 2.79742C200.548 2.79742 200.836 2.79742 201.124 2.74942H201.796C202.132 2.79742 202.42 2.79742 202.756 2.79742C202.996 2.79742 203.188 2.84543 203.476 2.89342C203.668 2.84543 203.956 2.84543 204.196 2.89342C204.436 2.89342 204.676 2.94142 204.868 2.98942H205.204C205.54 3.08543 205.924 3.08543 206.26 3.08543C206.404 3.13342 206.548 3.13342 206.74 3.13342C206.836 3.08543 206.932 3.13342 207.076 3.18142C207.268 3.18142 207.508 3.22942 207.748 3.27743C208.036 3.32543 208.324 3.42142 208.612 3.66142C208.804 3.94943 208.804 4.33342 208.708 4.66943L208.564 5.10143L208.372 5.29343L208.036 5.43742H207.94C207.652 5.38942 207.412 5.34142 207.124 5.34142H207.028C206.596 5.19742 206.212 5.24542 205.828 5.29343C205.78 5.29343 205.732 5.29343 205.732 5.34142L205.396 5.53343C205.396 5.58142 205.348 5.67742 205.3 5.77343L205.012 6.68542C204.868 7.02142 204.772 7.35742 204.724 7.74143C204.628 8.12542 204.532 8.46142 204.532 8.79743C204.436 9.13342 204.34 9.46943 204.292 9.75743C204.244 10.1894 204.148 10.6214 204.1 11.0054C204.052 11.1014 204.052 11.1974 204.052 11.2454V11.5814C203.908 12.2054 203.86 12.8294 203.716 13.4534C203.668 13.5494 203.668 13.6934 203.668 13.8374C203.572 14.1254 203.572 14.4134 203.476 14.7014C203.332 15.0374 203.38 15.3734 203.332 15.7094V15.9014C203.188 16.2374 203.188 16.5734 203.188 16.9094C203.14 17.0054 203.14 17.1014 203.14 17.1974C203.092 17.3414 203.092 17.4854 203.092 17.5814C203.044 17.6294 203.092 17.7254 203.044 17.7254C202.948 18.1574 202.948 18.5894 202.9 19.0214C202.852 19.4054 202.756 19.7414 202.756 20.1254V20.2214C202.564 20.6534 202.612 21.0854 202.564 21.4694C202.564 21.6614 202.516 21.8054 202.516 21.9494C202.468 22.1894 202.42 22.4294 202.42 22.6694C202.468 22.7174 202.42 22.8134 202.42 22.9094C202.372 23.1014 202.372 23.2934 202.372 23.5334C202.228 23.7734 202.228 24.0134 202.18 24.2534C202.18 24.6854 202.132 25.0694 202.084 25.5014C202.084 25.6934 201.988 25.8374 201.94 26.0294L201.892 26.2214C201.892 26.5574 201.844 26.9414 201.796 27.2774C201.796 27.7094 201.748 28.0934 201.652 28.5254C201.604 28.9574 201.508 29.4374 201.508 29.8694V30.0614C201.46 30.6374 201.46 31.2134 201.508 31.8374C201.556 31.8854 201.604 31.9814 201.652 32.0774L201.988 32.3654C202.42 32.4134 202.852 32.4134 203.236 32.4134C203.476 32.3654 203.668 32.4134 203.908 32.5094C204.004 32.6054 204.1 32.6534 204.148 32.7494C204.436 33.0854 204.484 33.4694 204.436 33.8534C204.292 33.9974 204.196 34.1894 204.052 34.3334C203.764 34.4294 203.524 34.4294 203.284 34.4294C202.756 34.4294 202.276 34.4294 201.796 34.4774H201.172C200.98 34.4774 200.788 34.5254 200.596 34.5254C200.308 34.5254 200.068 34.5734 199.828 34.4774C199.636 34.5254 199.396 34.5254 199.156 34.5254C198.58 34.5254 198.004 34.5734 197.38 34.6214C197.236 34.6214 197.044 34.6694 196.852 34.6214C196.804 34.5734 196.756 34.6214 196.708 34.6214C196.516 34.6694 196.324 34.6214 196.084 34.6214Z"/>
<path d="M214.85 36.3974C214.61 36.3494 214.37 36.3014 214.13 36.2054C213.938 36.1574 213.841 36.0614 213.697 35.9174C213.601 35.8214 213.553 35.7254 213.553 35.5814C213.553 35.2454 213.506 34.8614 213.65 34.5254C213.698 33.8054 213.938 33.1814 213.938 32.4614C213.938 32.4134 213.938 32.3654 213.986 32.2694C214.178 31.4534 214.225 30.5894 214.417 29.7734C214.417 29.6774 214.417 29.5814 214.465 29.4854C214.513 28.7654 214.61 28.0454 214.658 27.3254C214.706 26.8454 214.706 26.3654 214.85 25.8374V25.5494C214.85 25.0214 214.946 24.5414 215.042 24.0134C215.09 23.7254 215.089 23.4374 215.137 23.1494C215.281 22.4294 215.329 21.7094 215.425 20.9894C215.569 20.3654 215.618 19.6934 215.714 19.0214C215.762 18.5894 215.858 18.1574 215.906 17.6774C215.954 17.1014 216.097 16.5254 216.193 15.9494C216.193 15.7094 216.242 15.4694 216.29 15.2774C216.338 14.7494 216.482 14.2214 216.482 13.6934C216.674 13.1174 216.626 12.4454 216.77 11.8694C216.818 11.6774 216.818 11.5334 216.818 11.3894C216.914 10.5734 217.057 9.80542 217.201 9.03743C217.201 8.89342 217.201 8.79743 217.249 8.65343C217.249 8.26942 217.297 7.93343 217.393 7.59742C217.393 7.40542 217.441 7.26143 217.441 7.06943C217.537 5.77343 217.729 4.47742 217.969 3.18142C217.969 3.08543 218.018 2.98942 218.018 2.89342C218.066 2.65343 218.161 1.83742 218.305 1.54943C218.449 1.21342 218.834 1.16542 219.122 1.16542H219.794C219.986 1.16542 220.177 1.11742 220.369 1.16542C220.561 1.21342 220.657 1.30943 220.753 1.45342C220.753 1.54943 220.801 1.64542 220.801 1.74143C220.849 2.55742 221.042 3.37342 221.042 4.18943V4.38143C221.186 4.81343 221.186 5.24542 221.234 5.62942C221.234 5.82142 221.233 5.96543 221.281 6.15743C221.281 6.39743 221.33 6.63743 221.378 6.92542C221.378 7.35742 221.474 7.83742 221.57 8.26942C221.762 9.03743 221.858 9.80542 221.906 10.6214C222.002 11.4374 222.146 12.2054 222.29 13.0214C222.386 13.4534 222.434 13.8854 222.482 14.2694C222.578 14.5574 222.577 14.8934 222.673 15.1334C222.721 15.3254 222.721 15.4694 222.721 15.6614C222.769 16.0454 222.817 16.4774 222.913 16.9094C223.057 17.5814 223.153 18.2534 223.298 18.9254L223.346 19.4054C223.346 19.5974 223.345 19.7414 223.393 19.8854C223.489 20.1734 223.49 20.4134 223.538 20.7014C223.586 20.9894 223.586 21.2774 223.682 21.5654C223.73 21.6614 223.729 21.8054 223.729 21.9494C223.729 22.5254 223.873 23.1014 223.969 23.6774C224.017 23.9654 224.018 24.2054 224.018 24.4454C224.018 24.8774 224.161 25.2614 224.113 25.6454C224.113 25.6934 224.113 25.6934 224.161 25.7414C224.257 26.1254 224.258 26.5094 224.354 26.8934C224.354 26.9414 224.402 26.9414 224.402 26.9894C224.45 27.0374 224.498 27.0854 224.546 27.0854C224.594 27.0374 224.689 26.9894 224.689 26.9414C224.785 26.5574 224.93 26.1254 224.93 25.6934C224.93 25.4534 224.977 25.2614 225.025 25.0214C225.073 24.8774 225.074 24.7814 225.074 24.6374C225.122 24.2054 225.17 23.7734 225.266 23.3894L225.41 22.1894C225.506 21.5654 225.649 20.8934 225.697 20.2694C225.841 19.3574 225.985 18.4454 226.225 17.5814C226.321 17.1494 226.418 16.7174 226.465 16.2854C226.562 15.6134 226.705 14.8934 226.801 14.1734C226.849 13.8374 226.85 13.4534 226.993 13.1174C227.089 12.7814 227.09 12.3974 227.186 12.0614C227.282 11.6294 227.378 11.1974 227.426 10.8134C227.522 10.0934 227.665 9.42142 227.809 8.74942C227.905 8.36543 227.953 7.98143 228.001 7.59742L228.434 5.19742L229.01 2.60543C229.058 2.50942 229.057 2.41343 229.105 2.31742C229.345 1.83742 229.633 1.69342 230.113 1.78942C230.401 1.83742 230.641 1.93343 230.833 2.07742C231.121 2.22142 231.266 2.41343 231.266 2.70142C231.266 3.03742 231.217 3.37342 231.169 3.66142C230.929 4.76542 230.689 5.86942 230.497 6.97342C230.401 7.50143 230.258 8.02942 230.21 8.60543C230.162 8.94142 230.066 9.22942 230.018 9.56542C229.922 10.2374 229.826 10.9094 229.682 11.5814C229.586 12.0614 229.538 12.5414 229.49 13.0694C229.394 13.4534 229.345 13.8854 229.249 14.3174L229.105 15.4694C229.009 16.0934 228.866 16.7174 228.77 17.2934C228.722 17.8694 228.578 18.3974 228.482 18.9734C228.434 19.3574 228.338 19.7414 228.29 20.1254C228.146 20.6534 228.098 21.2294 227.954 21.7574C227.858 22.2854 227.809 22.8614 227.714 23.3894L227.57 24.0614C227.522 24.2534 227.521 24.3974 227.473 24.5414C227.473 24.9254 227.377 25.2614 227.329 25.6454C227.233 25.9334 227.233 26.2694 227.137 26.6054C227.089 26.7974 227.09 26.9894 227.042 27.1814C227.042 27.4694 226.993 27.7574 226.945 28.0454C226.897 28.8614 226.657 29.6774 226.609 30.4934C226.561 30.7334 226.562 31.0214 226.514 31.2614C226.466 31.7894 226.466 32.3174 226.322 32.7974C226.274 33.4214 226.129 34.0454 226.081 34.6694C226.081 34.8134 226.081 35.0054 226.033 35.1494L225.889 35.8214L225.745 35.9654C225.649 36.0614 225.553 36.1574 225.41 36.1574C225.17 36.2054 224.881 36.2054 224.689 36.2054C224.497 36.2054 224.305 36.1574 224.161 36.1574L223.777 36.0134C223.633 35.9174 223.537 35.8214 223.441 35.6774L223.201 35.2454L222.913 34.0934C222.817 33.5174 222.77 32.9414 222.626 32.3654C222.578 32.1734 222.577 31.9814 222.529 31.7894C222.529 31.2614 222.481 30.7814 222.385 30.3014L222.242 28.9574C222.194 28.4774 222.145 28.0454 222.049 27.5654C222.001 27.3734 222.001 27.1334 222.001 26.8934C221.953 26.3174 221.905 25.6934 221.809 25.1174C221.713 24.6854 221.665 24.2054 221.617 23.7734C221.569 23.4374 221.522 23.1014 221.426 22.8134V22.6214C221.378 22.0934 221.282 21.5654 221.234 21.0374C221.138 20.3174 220.993 19.6454 220.897 18.9254L220.753 18.1574C220.705 17.3414 220.61 16.5734 220.465 15.8054C220.369 15.0854 220.178 14.4134 220.13 13.6454C220.13 13.2134 220.033 12.7814 219.938 12.3014C219.841 11.5814 219.746 10.8134 219.602 10.0934C219.602 9.99743 219.553 9.94943 219.505 9.90142C219.361 9.94943 219.314 10.0454 219.266 10.1894C219.074 11.1974 218.881 12.2054 218.785 13.2614L218.497 15.3254C218.449 15.6134 218.45 15.9014 218.402 16.1894C218.258 16.8134 218.209 17.4854 218.113 18.1094L218.018 18.9254C218.018 19.1654 218.017 19.4534 217.969 19.6934C217.873 20.2694 217.873 20.8934 217.729 21.4694C217.681 21.5654 217.682 21.7094 217.682 21.8534C217.586 23.1974 217.345 24.5894 217.201 25.9334C217.153 26.4134 217.058 26.8454 217.01 27.2774C216.866 27.9494 216.865 28.6694 216.721 29.3414C216.673 29.4854 216.673 29.6774 216.673 29.8214C216.625 30.1094 216.625 30.3974 216.577 30.6854C216.481 31.1654 216.434 31.6934 216.434 32.1734C216.434 32.4614 216.385 32.7494 216.337 33.0374C216.289 33.3254 216.29 33.5654 216.242 33.8054C216.146 34.4774 216.05 35.1014 215.906 35.7734C215.858 35.9654 215.761 36.1094 215.617 36.2534C215.377 36.3974 215.138 36.4454 214.85 36.3974Z"/>
<path d="M246.657 37.7347C246.657 36.8172 246.739 35.9002 246.885 34.9926C246.87 34.9666 246.857 34.9388 246.847 34.9095L246.827 34.821L246.81 34.7091C246.762 34.4452 246.662 34.1621 246.55 33.8209C246.431 33.4579 246.298 33.0269 246.298 32.593C246.298 32.371 246.285 32.1597 246.267 31.9468C246.262 31.9487 246.257 31.9518 246.251 31.9535C246.127 31.991 246.013 31.9766 245.926 31.9502L245.849 31.9213C245.635 31.8263 245.346 31.715 245.072 31.5252L244.956 31.4387C242.494 29.4691 242.36 26.244 242.36 23.4771C242.36 23.3756 242.369 23.2585 242.377 23.156C242.385 23.0467 242.393 22.9424 242.397 22.841C242.4 22.7391 242.397 22.6543 242.389 22.5876C242.384 22.5524 242.378 22.5295 242.374 22.5159L242.368 22.4998C242.268 22.3371 242.146 22.0458 242.084 21.7551C242.053 21.6078 242.031 21.4358 242.047 21.2658C242.062 21.0987 242.12 20.8819 242.297 20.7155L242.372 20.6572C242.55 20.5463 242.735 20.6009 242.798 20.6264C242.877 20.6585 242.936 20.7058 242.965 20.7303C243.03 20.7857 243.094 20.8577 243.147 20.922C243.258 21.057 243.391 21.241 243.517 21.4206C243.644 21.6021 243.773 21.7926 243.875 21.9415C243.926 22.0171 243.97 22.0813 244.005 22.1305C244.046 22.1874 244.059 22.2036 244.056 22.1995L244.149 22.3088C244.364 22.5733 244.549 22.896 244.704 23.144C244.903 23.4611 245.064 23.6788 245.233 23.7948L245.296 23.8444C245.433 23.9666 245.495 24.1266 245.526 24.2198C245.567 24.341 245.593 24.4761 245.613 24.5757C245.635 24.69 245.65 24.7671 245.669 24.825C245.669 24.8266 245.67 24.8282 245.67 24.8297C245.952 25.0551 246.008 25.3566 246.036 25.5315C246.072 25.7516 246.078 25.779 246.103 25.809L246.14 25.8586C246.174 25.9086 246.196 25.958 246.209 25.9866C246.232 26.036 246.253 26.0912 246.273 26.1462C246.313 26.2571 246.354 26.3891 246.39 26.5175C246.427 26.6464 246.461 26.7782 246.486 26.8902C246.507 26.982 246.534 27.1137 246.534 27.2106C246.534 27.4262 246.603 27.8903 246.662 28.157L246.786 28.6711C246.918 29.2098 247.06 29.8155 247.06 30.434C247.06 30.7945 247.09 31.1249 247.123 31.4756C247.156 31.822 247.191 32.1899 247.191 32.593C247.191 32.759 247.224 32.9363 247.276 33.1332C247.569 31.9962 247.953 30.885 248.394 29.818L248.548 29.458C248.921 28.619 249.374 27.7893 249.78 27.0135L249.994 26.6201C250.213 26.2306 250.447 25.853 250.675 25.4846C250.983 24.9886 251.28 24.5092 251.539 24.016L251.557 23.9818C251.891 23.1056 251.992 22.0645 252.027 21.0714L252.131 18.651C252.165 17.8505 252.192 17.0535 252.192 16.2521C252.192 13.851 252.259 11.3625 251.813 9.06058C251.58 9.11934 251.334 9.16838 251.125 9.20738C250.939 9.24193 250.778 9.2713 250.649 9.29988C250.585 9.31402 250.537 9.32623 250.502 9.33674C250.48 9.3435 250.471 9.34747 250.471 9.34747L250.388 9.39372C249.883 9.6538 249.359 9.55902 248.967 9.44533C248.763 9.386 248.541 9.30411 248.385 9.25229C248.252 9.20812 248.152 9.18031 248.074 9.16716L248.003 9.15912C247.831 9.14954 247.67 9.11619 247.526 9.04316C247.376 8.96668 247.274 8.86233 247.202 8.75829C247.141 8.67026 247.09 8.5638 247.065 8.51698C247.05 8.4872 247.036 8.46243 247.022 8.44057L246.98 8.38158C246.907 8.29393 246.81 8.14136 246.825 7.94121C246.835 7.80968 246.888 7.70834 246.95 7.63422C246.895 7.34777 247.041 7.10278 247.225 6.93779L247.327 6.85937C247.572 6.69727 247.869 6.678 248.059 6.67638C248.182 6.67534 248.304 6.68264 248.405 6.68911C248.514 6.69608 248.591 6.70118 248.654 6.70118C249.074 6.70119 249.505 6.74277 249.902 6.78161C249.927 6.7841 249.952 6.78587 249.978 6.78832C249.779 6.52773 249.603 6.25355 249.463 6.00006L249.343 5.77216C249.28 5.64606 249.195 5.49755 249.095 5.32642C248.998 5.15962 248.888 4.97312 248.787 4.78684C248.686 4.60059 248.587 4.40319 248.511 4.20973C248.455 4.06788 248.406 3.91319 248.381 3.75594L248.365 3.59776C248.362 3.53509 248.34 3.40291 248.305 3.16676C248.274 2.95465 248.239 2.69067 248.229 2.43213C248.219 2.18434 248.229 1.88938 248.321 1.63851C248.369 1.50791 248.448 1.36545 248.58 1.25243C248.718 1.13397 248.888 1.07078 249.071 1.06341L249.173 1.06408C249.672 1.08882 250.029 1.43977 250.256 1.71426C250.386 1.87125 250.503 2.04161 250.602 2.18547C250.708 2.33799 250.789 2.45474 250.864 2.54139L250.989 2.69488C251.52 3.37496 251.802 4.15376 251.984 4.93096C252.005 4.87901 252.024 4.82677 252.045 4.77545C252.384 3.96375 252.877 3.17385 253.265 2.46162L253.323 2.37046C253.389 2.27599 253.48 2.17427 253.564 2.08358C253.684 1.9554 253.832 1.80846 253.991 1.66063C254.172 1.43155 254.393 1.2038 254.649 1.07547L254.741 1.03459C254.744 1.03327 254.747 1.03252 254.751 1.03123C254.93 0.902169 255.125 0.778474 255.303 0.714189C255.392 0.682018 255.553 0.635096 255.728 0.680005C255.828 0.705665 255.929 0.761354 256.008 0.85562C256.065 0.923722 256.099 0.997217 256.119 1.06542L256.133 1.13178L256.165 1.38112C256.217 1.95664 256.115 2.48322 255.975 2.96836C255.895 3.24319 255.799 3.51472 255.711 3.77069C255.666 3.90091 255.623 4.02819 255.583 4.15409L255.472 4.52945C255.399 4.80628 255.259 5.06614 255.137 5.27883C255.075 5.3863 255.019 5.48032 254.969 5.56706C255.002 5.56713 255.034 5.56617 255.066 5.56706C255.201 5.57086 255.336 5.5813 255.447 5.58985L255.702 5.60526L256.028 5.59655C256.128 5.59505 256.277 5.59643 256.422 5.64481C256.595 5.70271 256.744 5.82087 256.835 6.00743C256.912 6.16801 256.931 6.34967 256.931 6.52087C256.931 7.01909 256.699 7.41874 256.382 7.72202C256.072 8.01871 255.666 8.24007 255.258 8.4084C254.646 8.66116 253.962 8.82099 253.434 8.92251L252.965 9.00562C252.881 9.01954 252.798 9.03016 252.716 9.03913C253.152 11.413 253.084 13.9475 253.084 16.2521C253.084 17.0629 253.057 17.8777 253.023 18.6886L252.919 21.1023C252.911 21.3086 252.899 21.5218 252.885 21.739C252.918 21.685 252.953 21.6314 252.986 21.5775C253.483 20.7828 253.964 20.004 254.369 19.1933L254.56 18.8273C254.756 18.4634 254.969 18.1021 255.187 17.7475C255.157 17.6795 255.116 17.5999 255.061 17.4894C254.996 17.3578 254.905 17.1679 254.873 16.9512L254.864 16.8567C254.848 16.567 254.863 16.2409 254.863 16.0001C254.863 15.8734 254.851 15.7873 254.843 15.5892C254.837 15.4327 254.837 15.2209 254.899 15.0214L254.977 14.7969C255.004 14.7239 255.031 14.6549 255.053 14.5971C255.101 14.4685 255.133 14.3695 255.147 14.2828L255.184 14.1219C255.228 13.9728 255.289 13.8579 255.333 13.7734C255.393 13.658 255.418 13.6058 255.431 13.5354L255.459 13.4161C255.535 13.1437 255.688 12.9077 255.769 12.7659L255.958 12.4435C256.013 12.3483 256.058 12.2623 256.086 12.1754L256.115 12.1003C256.19 11.9301 256.308 11.7962 256.351 11.7404C256.41 11.6654 256.419 11.6412 256.42 11.6372L256.436 11.5607C256.442 11.5404 256.447 11.5252 256.45 11.5172C256.459 11.4945 256.469 11.4737 256.477 11.4575C256.492 11.4248 256.511 11.3898 256.529 11.3577C256.566 11.2924 256.613 11.2164 256.66 11.1438C256.707 11.0714 256.759 10.9964 256.806 10.9334C256.83 10.9022 256.855 10.869 256.881 10.8395C256.892 10.8263 256.921 10.792 256.963 10.7577C256.968 10.7509 256.977 10.7413 256.987 10.7269C257.018 10.6856 257.056 10.6289 257.094 10.5674C257.132 10.5059 257.166 10.4463 257.19 10.4005C257.197 10.3858 257.202 10.3738 257.206 10.3656C257.24 10.1852 257.325 10.0399 257.386 9.94469C257.474 9.80712 257.505 9.77606 257.544 9.70272L257.735 9.34411C257.809 9.21544 257.905 9.05816 258.016 8.93658L258.038 8.90709C258.061 8.87235 258.085 8.81826 258.126 8.71405C258.17 8.59806 258.244 8.395 258.392 8.21736L258.424 8.15101C258.447 8.1043 258.495 8.00663 258.526 7.9459C258.545 7.91095 258.566 7.87152 258.589 7.83463C258.606 7.80593 258.645 7.74464 258.702 7.69119C258.728 7.6666 258.795 7.60761 258.898 7.57724C259.032 7.53802 259.196 7.55806 259.326 7.6684C259.425 7.7531 259.461 7.85552 259.473 7.8963C259.481 7.9212 259.486 7.9453 259.49 7.96668L259.497 8.02231L259.514 8.10543C259.524 8.14199 259.539 8.18677 259.56 8.23747C259.6 8.33583 259.647 8.41913 259.68 8.46403L259.735 8.55854C259.78 8.65439 259.798 8.75016 259.807 8.79917C259.823 8.88974 259.833 8.98875 259.839 9.07801C259.851 9.25821 259.851 9.44053 259.851 9.51906C259.851 9.60146 259.866 9.6463 259.897 9.73556C259.934 9.84082 259.992 10.0009 259.992 10.2329V12.3671C259.992 12.5778 259.911 12.7254 259.862 12.8068C259.857 12.8148 259.848 12.8274 259.842 12.837C259.792 13.2854 259.743 13.7362 259.593 14.1869L259.521 14.3847C259.483 14.4798 259.446 14.5861 259.405 14.7057C259.365 14.822 259.321 14.9522 259.274 15.0791C259.192 15.2954 259.087 15.5423 258.934 15.7541L258.865 15.8425C258.837 15.8764 258.814 15.9291 258.746 16.0852C258.702 16.1865 258.625 16.3662 258.481 16.5135L258.416 16.5745C258.369 16.6131 258.312 16.6746 258.24 16.7635L258.018 17.043C257.888 17.1988 257.678 17.4347 257.438 17.6355C257.319 17.7361 257.182 17.8364 257.034 17.913C256.89 17.9881 256.709 18.0551 256.509 18.0551C256.354 18.0551 256.21 18.0403 256.074 18.0109C255.819 18.4211 255.572 18.8292 255.349 19.2436L255.168 19.5921C254.741 20.4457 254.238 21.2577 253.743 22.05C253.261 22.8218 252.786 23.5736 252.371 24.3525C252.342 24.4263 252.312 24.4995 252.28 24.5717C252.253 24.6312 252.215 24.681 252.169 24.7218C251.934 25.144 251.682 25.5549 251.434 25.9545C251.204 26.326 250.979 26.6892 250.772 27.0571L250.571 27.4271C250.473 27.614 250.375 27.8014 250.277 27.9881C250.325 27.9524 250.373 27.9155 250.423 27.8795L250.604 27.7548C251.034 27.472 251.505 27.242 251.894 27.0236L252.276 26.8138C253.169 26.3358 254.08 25.932 255.026 25.5704L255.588 25.3499C256.054 25.1676 256.576 24.9756 257.097 24.8746C256.888 23.8841 256.871 22.989 257.122 21.9549L257.173 21.7752C257.24 21.5639 257.354 21.2734 257.496 21.0466C257.546 20.9678 257.606 20.8831 257.68 20.8093C257.751 20.7388 257.86 20.6527 258.006 20.6123C258.172 20.5666 258.346 20.592 258.496 20.6867C258.628 20.7708 258.717 20.8931 258.778 21.0057L258.846 21.1425C258.987 21.4627 259.018 21.7851 259.014 22.0762C259.011 22.2413 258.998 22.404 258.984 22.5528C258.975 22.6543 258.967 22.7481 258.96 22.839C259.208 22.563 259.486 22.3343 259.763 22.1325C259.94 22.0035 260.121 21.8826 260.295 21.7672C260.471 21.6502 260.638 21.5394 260.799 21.4253L260.928 21.3462C261.062 21.2736 261.208 21.2198 261.331 21.1793C261.499 21.1236 261.681 21.0756 261.792 21.0439L261.914 21.0145C262.04 20.9896 262.179 20.9812 262.32 21.0078C262.456 21.0333 262.581 21.0894 262.69 21.1733C262.745 21.1864 262.884 21.2265 262.986 21.3556L263.029 21.4186L263.056 21.4723C263.082 21.5319 263.095 21.5918 263.102 21.6465C263.147 21.7617 263.155 21.8782 263.155 21.9803C263.155 22.2705 263.082 22.5912 262.895 22.8644L262.807 22.9784C262.381 23.4759 261.89 24.0483 261.266 24.4631L261.139 24.5435C261.041 24.6035 260.861 24.7209 260.724 24.8022C260.609 24.8697 260.479 24.9413 260.34 24.998L260.199 25.0489C260.181 25.0548 260.162 25.0634 260.122 25.0858C260.233 25.1133 260.342 25.1419 260.449 25.1702L260.591 25.2138C260.919 25.3277 261.217 25.5252 261.47 25.7286C261.763 25.9638 262.026 26.2326 262.236 26.4505L262.299 26.5215C262.444 26.7009 262.581 26.9677 262.653 27.224C262.694 27.3738 262.724 27.5588 262.697 27.7448C262.671 27.918 262.591 28.1079 262.417 28.2448L262.338 28.3005C261.802 28.6216 261.299 28.5262 260.87 28.4017L260.692 28.3474C260.636 28.3303 260.576 28.3154 260.504 28.2984C260.436 28.2825 260.352 28.2637 260.27 28.2415C260.124 28.2019 259.95 28.1435 259.782 28.0344L259.711 27.9841C259.4 27.751 259.048 27.4102 258.796 27.0859C258.795 27.1801 258.792 27.2733 258.788 27.3647C258.756 28.0136 258.644 28.6802 258.311 29.3045L258.241 29.4285C258.064 29.7291 257.738 30.0185 257.383 30.127C257.198 30.1834 256.959 30.2037 256.728 30.0895C256.69 30.0708 256.656 30.0485 256.623 30.0251C256.545 30.0057 256.466 29.9733 256.391 29.9205C256.231 29.8076 256.151 29.6495 256.11 29.503L256.08 29.3622C256.075 29.3328 256.066 29.2955 256.047 29.2348C256.031 29.1841 256.001 29.098 255.981 29.017C255.934 28.8377 255.9 28.5902 256.016 28.3152L256.048 28.2261C256.075 28.1324 256.094 28.0218 256.119 27.8708C256.148 27.6899 256.189 27.4434 256.302 27.2072L256.442 26.8962C256.487 26.7882 256.533 26.6757 256.58 26.5591C256.672 26.3305 256.77 26.0847 256.881 25.8472L256.882 25.8439C256.571 25.9322 256.252 26.0496 255.929 26.1757L255.344 26.4042C254.428 26.7548 253.552 27.1433 252.697 27.6007L252.332 27.8011C251.879 28.0559 251.478 28.2473 251.104 28.4942L250.945 28.6041C250.176 29.1575 249.705 29.6461 249.131 30.4266C249.12 30.4413 249.106 30.4532 249.094 30.4662C248.168 32.7859 247.549 35.2733 247.549 37.7347C247.549 37.9811 247.349 38.1811 247.103 38.1811C246.856 38.181 246.657 37.9811 246.657 37.7347Z"/>
<path d="M16.8997 37.7347C16.8997 36.8172 16.8179 35.9002 16.6712 34.9926C16.6866 34.9666 16.6995 34.9388 16.7094 34.9095L16.7295 34.821L16.7469 34.7091C16.7949 34.4452 16.8945 34.1621 17.0063 33.8209C17.1252 33.4579 17.2583 33.0269 17.2583 32.593C17.2583 32.371 17.2721 32.1597 17.2892 31.9468C17.2948 31.9487 17.3002 31.9518 17.3059 31.9535C17.43 31.991 17.5435 31.9766 17.6303 31.9502L17.7081 31.9213C17.9219 31.8263 18.2109 31.715 18.4843 31.5252L18.6002 31.4387C21.0623 29.4691 21.1962 26.244 21.1962 23.4771C21.1962 23.3756 21.1872 23.2585 21.1794 23.156C21.1712 23.0467 21.1632 22.9424 21.16 22.841C21.1568 22.7391 21.1591 22.6543 21.168 22.5876C21.1728 22.5524 21.1786 22.5295 21.1828 22.5159L21.1882 22.4998C21.2883 22.3371 21.4102 22.0458 21.4723 21.7551C21.5038 21.6078 21.5257 21.4358 21.5099 21.2658C21.4943 21.0987 21.4367 20.8819 21.2592 20.7155L21.1841 20.6572C21.0065 20.5463 20.8215 20.6009 20.7585 20.6264C20.6791 20.6585 20.6202 20.7058 20.5916 20.7303C20.5267 20.7857 20.463 20.8577 20.41 20.922C20.2984 21.057 20.1657 21.241 20.04 21.4206C19.913 21.6021 19.7838 21.7926 19.682 21.9415C19.6303 22.0171 19.5863 22.0813 19.5513 22.1305C19.5108 22.1874 19.4973 22.2036 19.5011 22.1995L19.4072 22.3088C19.1927 22.5733 19.0074 22.896 18.8522 23.144C18.6537 23.4611 18.4927 23.6788 18.3241 23.7948L18.2604 23.8444C18.1238 23.9666 18.0617 24.1266 18.0305 24.2198C17.99 24.341 17.9636 24.4761 17.944 24.5757C17.9216 24.69 17.9062 24.7671 17.8877 24.825C17.8872 24.8266 17.8869 24.8282 17.8864 24.8297C17.6048 25.0551 17.5487 25.3566 17.5204 25.5315C17.4849 25.7516 17.479 25.779 17.4541 25.809L17.4165 25.8586C17.3831 25.9086 17.3604 25.958 17.3475 25.9866C17.3252 26.036 17.3036 26.0912 17.2838 26.1462C17.2438 26.2571 17.2031 26.3891 17.1665 26.5175C17.1298 26.6464 17.0959 26.7782 17.0707 26.8902C17.05 26.982 17.0224 27.1137 17.0224 27.2106C17.0224 27.4262 16.9537 27.8903 16.8944 28.157L16.7711 28.6711C16.639 29.2098 16.4969 29.8155 16.4969 30.434C16.4969 30.7945 16.4662 31.1249 16.4332 31.4756C16.4006 31.822 16.3655 32.1899 16.3655 32.593C16.3655 32.759 16.3331 32.9363 16.2811 33.1332C15.9876 31.9962 15.6036 30.885 15.1624 29.818L15.0082 29.458C14.6352 28.619 14.1824 27.7893 13.7769 27.0135L13.5631 26.6201C13.3436 26.2306 13.1097 25.853 12.8815 25.4846C12.5742 24.9886 12.277 24.5092 12.0175 24.016L11.9994 23.9818C11.6659 23.1056 11.5644 22.0645 11.5295 21.0714L11.4256 18.651C11.3915 17.8505 11.3646 17.0535 11.3646 16.2521C11.3646 13.851 11.298 11.3625 11.744 9.06058C11.9764 9.11934 12.2223 9.16838 12.4317 9.20738C12.6173 9.24193 12.7783 9.2713 12.9076 9.29988C12.9716 9.31402 13.02 9.32623 13.0544 9.33674C13.0765 9.3435 13.0859 9.34747 13.0859 9.34747L13.1683 9.39372C13.6733 9.6538 14.1973 9.55902 14.5893 9.44533C14.7939 9.386 15.0157 9.30411 15.1718 9.25229C15.3048 9.20812 15.405 9.18031 15.4828 9.16716L15.5538 9.15912C15.726 9.14954 15.8867 9.11619 16.0304 9.04316C16.1808 8.96668 16.2823 8.86233 16.3548 8.75829C16.4162 8.67026 16.4671 8.5638 16.4915 8.51698C16.5071 8.4872 16.5209 8.46243 16.5344 8.44057L16.5767 8.38158C16.6497 8.29393 16.7463 8.14136 16.7315 7.94121C16.7218 7.80968 16.6686 7.70834 16.6068 7.63422C16.6619 7.34777 16.5153 7.10278 16.332 6.93779L16.2301 6.85937C15.9843 6.69727 15.688 6.678 15.4975 6.67638C15.3745 6.67534 15.2527 6.68264 15.1517 6.68911C15.0429 6.69608 14.9653 6.70118 14.9023 6.70118C14.4825 6.70119 14.0515 6.74277 13.655 6.78161C13.6296 6.7841 13.6043 6.78587 13.5792 6.78832C13.7772 6.52773 13.9534 6.25355 14.094 6.00006L14.214 5.77216C14.277 5.64606 14.3618 5.49755 14.4613 5.32642C14.5583 5.15962 14.6684 4.97312 14.7696 4.78684C14.8709 4.60059 14.9698 4.40319 15.0458 4.20973C15.1015 4.06788 15.151 3.91319 15.1758 3.75594L15.1919 3.59776C15.1944 3.53509 15.2169 3.40291 15.2515 3.16676C15.2827 2.95465 15.3178 2.69067 15.328 2.43213C15.3377 2.18434 15.3275 1.88938 15.2355 1.63851C15.1875 1.50791 15.1084 1.36545 14.9767 1.25243C14.8386 1.13397 14.669 1.07078 14.4854 1.06341L14.3835 1.06408C13.8852 1.08882 13.5281 1.43977 13.3011 1.71426C13.1712 1.87125 13.0541 2.04161 12.9545 2.18547C12.8489 2.33799 12.7674 2.45474 12.6931 2.54139L12.5678 2.69488C12.0369 3.37496 11.755 4.15376 11.5724 4.93096C11.5521 4.87901 11.5328 4.82677 11.5114 4.77545C11.1732 3.96375 10.68 3.17385 10.2915 2.46162L10.2339 2.37046C10.1674 2.27599 10.0771 2.17427 9.99259 2.08358C9.87308 1.9554 9.7251 1.80846 9.56562 1.66063C9.38476 1.43155 9.16394 1.2038 8.90741 1.07547L8.81626 1.03459C8.81298 1.03327 8.80949 1.03252 8.8062 1.03123C8.62674 0.902169 8.43158 0.778474 8.2539 0.714189C8.16492 0.682018 8.00358 0.635096 7.82894 0.680005C7.72918 0.705665 7.62814 0.761354 7.54877 0.85562C7.49144 0.923722 7.45735 0.997217 7.43818 1.06542L7.42343 1.13178L7.39193 1.38112C7.34002 1.95664 7.44156 2.48322 7.58228 2.96836C7.66201 3.24319 7.75766 3.51472 7.8457 3.77069C7.89049 3.90091 7.93338 4.02819 7.97372 4.15409L8.08499 4.52945C8.15827 4.80628 8.29825 5.06614 8.42013 5.27883C8.48171 5.3863 8.53795 5.48032 8.58769 5.56706C8.5548 5.56713 8.52252 5.56617 8.49117 5.56706C8.35609 5.57086 8.22089 5.5813 8.10979 5.58985L7.85509 5.60526L7.52933 5.59655C7.4292 5.59505 7.27989 5.59643 7.13521 5.64481C6.9622 5.70271 6.81254 5.82087 6.72232 6.00743C6.64473 6.16801 6.62581 6.34967 6.62581 6.52087C6.62581 7.01909 6.85795 7.41874 7.17476 7.72202C7.48475 8.01871 7.89105 8.24007 8.29881 8.4084C8.91112 8.66116 9.59453 8.82099 10.1233 8.92251L10.5918 9.00562C10.6753 9.01954 10.7593 9.03016 10.8412 9.03913C10.4046 11.413 10.4725 13.9475 10.4725 16.2521C10.4725 17.0629 10.4997 17.8777 10.5342 18.6886L10.6381 21.1023C10.6453 21.3086 10.6575 21.5218 10.6722 21.739C10.6384 21.685 10.604 21.6314 10.5704 21.5775C10.0738 20.7828 9.59297 20.004 9.18759 19.1933L8.99723 18.8273C8.80099 18.4634 8.58758 18.1021 8.36985 17.7475C8.40006 17.6795 8.44099 17.5999 8.49587 17.4894C8.56123 17.3578 8.65228 17.1679 8.68354 16.9512L8.69293 16.8567C8.70902 16.567 8.6936 16.2409 8.6936 16.0001C8.69361 15.8734 8.70632 15.7873 8.7137 15.5892C8.71954 15.4327 8.71943 15.2209 8.65807 15.0214L8.58032 14.7969C8.55291 14.7239 8.52564 14.6549 8.50391 14.5971C8.4555 14.4685 8.42385 14.3695 8.4094 14.2828L8.37254 14.1219C8.32889 13.9728 8.26787 13.8579 8.22374 13.7734C8.16352 13.658 8.13872 13.6058 8.12588 13.5354L8.09772 13.4161C8.02146 13.1437 7.86839 12.9077 7.78739 12.7659L7.59837 12.4435C7.54388 12.3483 7.49934 12.2623 7.47035 12.1754L7.44153 12.1003C7.36701 11.9301 7.24927 11.7962 7.20559 11.7404C7.14697 11.6654 7.13766 11.6412 7.13655 11.6372L7.12114 11.5607C7.11526 11.5404 7.10942 11.5252 7.10639 11.5172C7.09777 11.4945 7.08797 11.4737 7.08025 11.4575C7.06461 11.4248 7.04616 11.3898 7.02797 11.3577C6.99101 11.2924 6.94386 11.2164 6.8966 11.1438C6.84941 11.0714 6.79766 10.9964 6.75048 10.9334C6.72713 10.9022 6.70184 10.869 6.67608 10.8395C6.6645 10.8263 6.63553 10.792 6.5943 10.7577C6.58879 10.7509 6.57999 10.7413 6.5695 10.7269C6.53926 10.6856 6.501 10.6289 6.46293 10.5674C6.42493 10.5059 6.39082 10.4463 6.36708 10.4005C6.35948 10.3858 6.35479 10.3738 6.35099 10.3656C6.31663 10.1852 6.23159 10.0399 6.17069 9.94469C6.08266 9.80712 6.05201 9.77606 6.01318 9.70272L5.82148 9.34411C5.74836 9.21544 5.65179 9.05816 5.5413 8.93658L5.51851 8.90709C5.49595 8.87235 5.47173 8.81826 5.43138 8.71405C5.38647 8.59806 5.31331 8.395 5.16528 8.21736L5.13311 8.15101C5.10947 8.1043 5.06216 8.00663 5.03056 7.9459C5.01236 7.91095 4.99099 7.87152 4.96822 7.83463C4.9505 7.80593 4.91167 7.74464 4.85494 7.69119C4.82883 7.6666 4.7622 7.60761 4.65856 7.57724C4.52458 7.53802 4.3606 7.55806 4.23092 7.6684C4.13151 7.7531 4.0958 7.85552 4.08346 7.8963C4.07594 7.9212 4.07096 7.9453 4.06737 7.96668L4.06 8.02231L4.04324 8.10543C4.03299 8.14199 4.0178 8.18677 3.997 8.23747C3.95662 8.33583 3.90967 8.41913 3.87702 8.46403L3.82205 8.55854C3.77656 8.65439 3.75843 8.75016 3.74967 8.79917C3.73347 8.88974 3.72413 8.98875 3.71816 9.07801C3.70614 9.25821 3.70543 9.44053 3.70543 9.51906C3.70542 9.60146 3.69112 9.6463 3.65985 9.73556C3.62297 9.84082 3.56469 10.0009 3.56467 10.2329V12.3671C3.56467 12.5778 3.64559 12.7254 3.69537 12.8068C3.70023 12.8148 3.70881 12.8274 3.71481 12.837C3.76458 13.2854 3.81424 13.7362 3.96348 14.1869L4.03587 14.3847C4.07393 14.4798 4.11078 14.5861 4.15183 14.7057C4.19175 14.822 4.23556 14.9522 4.2832 15.0791C4.36441 15.2954 4.47011 15.5423 4.62303 15.7541L4.69207 15.8425C4.72028 15.8764 4.74263 15.9291 4.81071 16.0852C4.8549 16.1865 4.93215 16.3662 5.07546 16.5135L5.14115 16.5745C5.18743 16.6131 5.24449 16.6746 5.31676 16.7635L5.53929 17.043C5.66913 17.1988 5.87887 17.4347 6.11841 17.6355C6.23832 17.7361 6.37535 17.8364 6.52258 17.913C6.66674 17.9881 6.84794 18.0551 7.04741 18.0551C7.20272 18.0551 7.34714 18.0403 7.48241 18.0109C7.73745 18.4211 7.98486 18.8292 8.20832 19.2436L8.38929 19.5921C8.81608 20.4457 9.31847 21.2577 9.81362 22.05C10.2959 22.8218 10.7706 23.5736 11.1857 24.3525C11.2146 24.4263 11.2447 24.4995 11.2768 24.5717C11.3033 24.6312 11.3419 24.681 11.3874 24.7218C11.6227 25.144 11.8751 25.5549 12.1227 25.9545C12.3529 26.326 12.5775 26.6892 12.7849 27.0571L12.986 27.4271C13.0837 27.614 13.1813 27.8014 13.2796 27.9881C13.2317 27.9524 13.1835 27.9155 13.1335 27.8795L12.9525 27.7548C12.5231 27.472 12.0513 27.242 11.6629 27.0236L11.2808 26.8138C10.3876 26.3358 9.47644 25.932 8.53072 25.5704L7.96836 25.3499C7.5028 25.1676 6.98111 24.9756 6.46025 24.8746C6.66916 23.8841 6.68632 22.989 6.43478 21.9549L6.38384 21.7752C6.31677 21.5639 6.20329 21.2734 6.06077 21.0466C6.01124 20.9678 5.95045 20.8831 5.87644 20.8093C5.80559 20.7388 5.69715 20.6527 5.55069 20.6123C5.38476 20.5666 5.21077 20.592 5.06139 20.6867C4.92884 20.7708 4.83995 20.8931 4.77853 21.0057L4.71084 21.1425C4.56986 21.4627 4.53931 21.7851 4.54327 22.0762C4.54552 22.2413 4.55913 22.404 4.57276 22.5528C4.58207 22.6543 4.58976 22.7481 4.59689 22.839C4.34917 22.563 4.07099 22.3343 3.7939 22.1325C3.61685 22.0035 3.43591 21.8826 3.26238 21.7672C3.08638 21.6502 2.91919 21.5394 2.75766 21.4253L2.62897 21.3462C2.49511 21.2736 2.34861 21.2198 2.22614 21.1793C2.05747 21.1236 1.87592 21.0756 1.76499 21.0439L1.643 21.0145C1.51682 20.9896 1.37845 20.9812 1.23681 21.0078C1.10094 21.0333 0.976398 21.0894 0.866823 21.1733C0.811533 21.1864 0.673234 21.2265 0.570562 21.3556L0.527665 21.4186L0.500854 21.4723C0.474891 21.5319 0.461975 21.5918 0.455275 21.6465C0.410284 21.7617 0.402324 21.8782 0.402324 21.9803C0.402324 22.2705 0.474791 22.5912 0.662389 22.8644L0.749525 22.9784C1.17595 23.4759 1.66673 24.0483 2.29115 24.4631L2.41783 24.5435C2.51605 24.6035 2.69583 24.7209 2.8334 24.8022C2.94751 24.8697 3.07832 24.9413 3.2168 24.998L3.35756 25.0489C3.37622 25.0548 3.39484 25.0634 3.43464 25.0858C3.32422 25.1133 3.21522 25.1419 3.10754 25.1702L2.96545 25.2138C2.6378 25.3277 2.3397 25.5252 2.08672 25.7286C1.79416 25.9638 1.53072 26.2326 1.32127 26.4505L1.25826 26.5215C1.11284 26.7009 0.975537 26.9677 0.904358 27.224C0.862771 27.3738 0.832546 27.5588 0.86012 27.7448C0.885849 27.918 0.966379 28.1079 1.13962 28.2448L1.21939 28.3005C1.75461 28.6216 2.25835 28.5262 2.68661 28.4017L2.86491 28.3474C2.92057 28.3303 2.98093 28.3154 3.05325 28.2984C3.12126 28.2825 3.20532 28.2637 3.28718 28.2415C3.43285 28.2019 3.60654 28.1435 3.77447 28.0344L3.84618 27.9841C4.15688 27.751 4.50869 27.4102 4.76044 27.0859C4.76212 27.1801 4.76461 27.2733 4.76915 27.3647C4.80139 28.0136 4.91284 28.6802 5.24638 29.3045L5.31609 29.4285C5.4929 29.7291 5.81879 30.0185 6.17404 30.127C6.35897 30.1834 6.59831 30.2037 6.8289 30.0895C6.86657 30.0708 6.90113 30.0485 6.93413 30.0251C7.01192 30.0057 7.09051 29.9733 7.16537 29.9205C7.32551 29.8076 7.40565 29.6495 7.44689 29.503L7.47705 29.3622C7.48147 29.3328 7.49083 29.2955 7.5099 29.2348C7.52585 29.1841 7.55535 29.098 7.57625 29.017C7.62253 28.8377 7.6565 28.5902 7.54073 28.3152L7.50922 28.2261C7.48151 28.1324 7.463 28.0218 7.43818 27.8708C7.40844 27.6899 7.36789 27.4434 7.25452 27.2072L7.1151 26.8962C7.06949 26.7882 7.02403 26.6757 6.97703 26.5591C6.88492 26.3305 6.7868 26.0847 6.67608 25.8472L6.67474 25.8439C6.98626 25.9322 7.30491 26.0496 7.62786 26.1757L8.21234 26.4042C9.12919 26.7548 10.0051 27.1433 10.8599 27.6007L11.2252 27.8011C11.6782 28.0559 12.0784 28.2473 12.4532 28.4942L12.612 28.6041C13.3806 29.1575 13.8517 29.6461 14.4258 30.4266C14.4366 30.4413 14.4504 30.4532 14.4626 30.4662C15.3888 32.7859 16.0076 35.2733 16.0076 37.7347C16.0076 37.9811 16.2076 38.1811 16.454 38.1811C16.7003 38.181 16.8997 37.9811 16.8997 37.7347Z"/>
</svg>
